<?xml version="1.0" encoding="UTF-8" standalone="no"?>
<!-- Created with Inkscape (http://www.inkscape.org/) -->

<svg
   version="1.1"
   id="svg1"
   width="787.58807"
   height="826.60333"
   viewBox="0 0 787.58807 826.60333"
   xmlns="http://www.w3.org/2000/svg"
   xmlns:svg="http://www.w3.org/2000/svg"
   xmlns:rdf="http://www.w3.org/1999/02/22-rdf-syntax-ns#"
   xmlns:cc="http://creativecommons.org/ns#"
   xmlns:dc="http://purl.org/dc/elements/1.1/">
  <title
     id="title55">ihui</title>
  <defs
     id="defs1" />
  <g
     id="g1"
     transform="translate(-249.53902,-225.67185)">
    <g
       id="g55">
      <path
         style="fill:#0047ab;fill-opacity:1"
         d="M 469.73963,473.63593 C 404.86502,450.14151 365.41679,426.61433 335.15402,393.36822 306.7083,362.11828 286.94227,324.27199 279.1682,286.17137 c -3.97506,-19.48173 -6.26355,-53.48414 -3.98016,-59.13722 0.76896,-1.90374 0.85859,-1.87967 1.86214,0.5 0.57987,1.375 2.70355,7.9 4.71929,14.5 13.58122,44.468 39.74879,86.18453 72.16468,115.04546 21.18781,18.86421 40.52288,31.96215 68.80548,46.61014 9.35,4.84251 16.36788,8.81352 15.5953,8.82448 -2.39394,0.034 -33.2162,-16.34337 -45.20802,-24.02115 -36.14163,-23.13973 -63.06848,-49.79021 -84.11615,-83.25281 -11.64548,-18.51453 -18.66814,-33.56635 -26.45711,-56.70612 -2.49929,-7.425 -4.95246,-14.4 -5.45147,-15.5 -0.56212,-1.23911 -0.71935,5.03825 -0.41327,16.5 0.37546,14.06008 1.09791,21.61995 3.01028,31.5 8.93427,46.15799 29.66493,84.86 63.4743,118.5 15.1694,15.09341 31.75868,27.78269 50.64071,38.73552 20.45652,11.86613 54.05949,26.74383 77.74061,34.41961 8.97977,2.91061 15.42159,5.81022 12.68482,5.7097 -0.825,-0.0303 -7.35,-2.17367 -14.5,-4.76305 z"
         id="path33" />
      <path
         style="fill:#fb9a23"
         d="m 571.50991,611.43435 c -7.52003,-25.25086 -25.35098,-47.85345 -49.1491,-62.30163 -18.79892,-11.4131 -38.41434,-18.88325 -75.32118,-28.68461 -42.12742,-11.18778 -64.56501,-18.94777 -88,-30.43457 -23.97406,-11.75103 -40.26342,-22.49208 -60.08757,-39.62115 -14.50294,-12.53128 -33.207,-33.54296 -43.03358,-48.34285 -2.0935,-3.15305 -3.95687,-5.28133 -4.14081,-4.7295 -0.54755,1.64264 3.65141,17.05196 7.27945,26.71411 18.413,49.03724 55.89373,88.4792 106.98251,112.58053 25.4079,11.98628 46.00236,18.12455 88.5,26.37783 30.11756,5.849 37.93155,7.76254 52,12.73406 25.34821,8.95757 45.71771,22.20873 59.82566,38.91895 7.68699,9.10489 8.63608,8.51249 5.14462,-3.21117 z"
         id="path32" />
      <path
         style="fill:#fb9a23"
         d="m 568.64581,619.16758 c -14.9319,-18.76516 -39.13008,-34.66904 -66.10618,-43.44724 -13.02611,-4.23879 -17.15683,-5.20952 -51.5,-12.10265 -44.72325,-8.97654 -62.32987,-14.43558 -89.15084,-27.64171 -24.81554,-12.2187 -44.51135,-26.39366 -61.54644,-44.29463 -23.94776,-25.16499 -40.9493,-55.43002 -48.76812,-86.81381 -3.58194,-14.37746 -2.58073,-15.72111 4.16044,-5.58339 17.4852,26.29519 44.00902,52.76207 70.7904,70.63842 30.43672,20.31626 59.06012,32.20023 113.51456,47.12939 14.85,4.07126 32.15021,9.039 38.44491,11.03944 44.27034,14.06897 73.1422,36.0134 88.07527,66.94275 6.20634,12.85456 10.87279,30.5 8.06592,30.5 -0.50264,0 -3.19361,-2.86496 -5.97992,-6.36657 z"
         id="path31" />
      <path
         style="fill:#fb9a23"
         d="m 565.73133,676.5348 c -5.57956,-6.02393 -11.4914,-11.07707 -18,-15.3855 -19.01799,-12.58912 -35.28439,-17.54758 -75.85618,-23.1231 -23.97499,-3.29473 -47.78921,-8.56461 -61.83552,-13.68365 -37.95405,-13.832 -68.09467,-39.48493 -86.97574,-74.02576 -2.01956,-3.69455 -3.52619,-7.63098 -3.34809,-8.74763 0.28295,-1.77398 1.33373,-1.23344 8.32383,4.28189 21.82004,17.21644 49.78834,30.65158 79.47209,38.17602 13.56579,3.43876 20.60187,4.87257 46.67436,9.51132 35.38483,6.29558 48.45115,10.04271 66.45691,19.05834 20.97151,10.50061 37.50457,27.32991 47.0753,47.91881 3.58341,7.70876 7.82134,20.5767 7.82134,23.74851 0,2.41332 -1.53252,1.20564 -9.8083,-7.72925 z"
         id="path30" />
      <path
         style="fill:#fb9a23"
         d="m 562.53963,867.67971 c 0.825,-0.51778 9.375,-2.36929 19,-4.11446 63.33075,-11.48289 95.33657,-20.87013 131.5,-38.56868 32.17131,-15.74478 61.61837,-38.19924 86.45345,-65.92393 21.24241,-23.714 37.35511,-46.56989 71.58151,-101.53849 22.73904,-36.51955 25.16386,-40.15768 41.3232,-62 32.48316,-43.90698 65.48359,-68.91824 110.14181,-83.47727 4.675,-1.5241 8.9275,-3.16521 9.45,-3.64691 1.5778,-1.4546 -33.15919,-0.99689 -45.23684,0.59607 -57.69092,7.60904 -94.19828,37.18351 -141.99313,115.02811 -44.49792,72.4748 -61.32882,96.75358 -85.42095,123.22076 -41.92025,46.05282 -88.6707,72.41503 -158.93366,89.62143 -21.34743,5.22768 -26.29857,6.16772 -25.47612,4.83698 0.32237,-0.52162 2.72917,-1.25934 5.34843,-1.63939 6.63585,-0.96285 33.66332,-7.7883 47.89059,-12.09417 62.88809,-19.033 110.93412,-53.27965 152.84431,-108.94561 16.23521,-21.56393 26.2472,-36.63123 50.50086,-76 24.23853,-39.3442 35.07407,-55.67858 46.22369,-69.68136 34.55479,-43.39729 69.65977,-62.90259 120.3082,-66.84655 13.89102,-1.08169 38.08692,-0.44073 38.99782,1.03305 0.5499,0.8898 -1.2455,1.62073 -15.8522,6.45369 -43.76992,14.48226 -76.03503,39.2678 -109.02104,83.74824 -11.09783,14.96501 -18.59533,26.2645 -38.34711,57.79293 -24.26525,38.73297 -27.28179,43.42497 -37.28878,58 -17.82933,25.96815 -31.00828,41.88321 -50.12991,60.53751 -40.30578,39.3207 -79.9415,60.92546 -142.86413,77.87284 -14.95321,4.02745 -37.66173,8.63735 -79.5,16.13876 -2.11293,0.37883 -2.55646,0.25951 -1.5,-0.40355 z"
         id="path29" />
      <path
         style="fill:#fb9a23"
         d="m 290.22037,1051.8266 c -0.67756,-1.0963 5.86528,-20.1451 10.78485,-31.3988 17.35439,-39.69923 46.34639,-75.80328 83.53441,-104.02637 43.1116,-32.71866 90.2238,-53.71524 150,-66.8508 5.225,-1.14817 10.4,-2.34716 11.5,-2.66442 1.40665,-0.40571 1.69831,-0.25665 0.9831,0.50244 -0.55929,0.59362 -6.18429,2.19726 -12.5,3.56365 -35.45396,7.67041 -62.44349,16.90205 -92.4831,31.63339 -72.86103,35.73086 -122.97335,88.95217 -146.48914,155.57741 -1.62504,4.6041 -2.51727,8.3711 -1.98274,8.3711 0.53454,0 0.97188,-0.4092 0.97188,-0.9094 0,-0.5002 3.65945,-5.996 8.13211,-12.213 54.39253,-75.6045 129.51575,-130.20776 213.07964,-154.8768 5.89147,-1.73922 11.51647,-2.99019 12.5,-2.77992 0.98354,0.21026 -0.68675,0.98386 -3.71175,1.71911 -11.02085,2.67868 -38.83105,12.43425 -52,18.24115 -69.71679,30.74184 -132.89761,83.94008 -174.96297,147.31886 -6.33174,9.5399 -6.65533,9.9266 -7.35629,8.7924 z"
         id="path8" />
      <path
         style="fill:#0047ab;fill-opacity:1"
         d="m 445.19405,443.78401 c -0.29395,-0.47562 -0.84442,-3.20141 -1.22327,-6.05731 -0.56373,-4.24965 -0.41717,-5.19255 0.80713,-5.19255 1.90748,0 6.98454,7.59584 6.56316,9.81922 -0.33835,1.78531 -5.22494,2.9226 -6.14702,1.43064 z"
         id="path53" />
      <path
         style="fill:#fa440f;fill-opacity:1"
         d="m 281.53963,252.8854 c 0,-1.58382 -3.09817,-7.35125 -3.94897,-7.35125 -1.07308,0 -1.50551,7.21219 -0.49313,8.22457 0.59078,0.59078 4.4421,-0.1664 4.4421,-0.87332 z"
         id="path52" />
      <path
         style="fill:#fa440f;fill-opacity:1"
         d="m 285.00459,269.7722 c 1.48757,0.28437 2.52871,0.0254 2.51973,-0.62672 -0.0322,-2.33595 -1.61664,-3.30864 -5.23175,-3.21175 -3.57549,0.0958 -3.74719,0.25632 -3.75,3.50541 -0.003,3.32145 0.0453,3.36136 1.96202,1.62672 1.22997,-1.11311 2.91318,-1.597 4.5,-1.29366 z"
         id="path51" />
      <path
         style="fill:#fa440f;fill-opacity:1"
         d="m 288.00052,291.53415 c 1.81182,0 3.85442,-0.675 4.53911,-1.5 0.68469,-0.825 1.86479,-1.5 2.62244,-1.5 1.60487,0 1.7248,-0.90224 0.39875,-3 -0.59872,-0.94715 -2.66661,-1.5466 -5.61062,-1.62643 -3.8281,-0.10381 -4.75289,0.21947 -5.16793,1.80656 -0.29404,1.12443 -1.07795,1.71331 -1.87406,1.40781 -1.66135,-0.63752 -1.7238,0.38838 -0.24938,4.09696 0.624,1.56955 1.32455,2.26203 1.58333,1.5651 0.25528,-0.6875 1.94654,-1.25 3.75836,-1.25 z"
         id="path50" />
      <path
         style="fill:#004fa3;fill-opacity:1"
         d="m 482.13724,476.53666 c -0.88132,-0.51518 -5.61529,-2.23738 -10.51994,-3.82713 -23.74467,-7.69638 -57.32237,-22.55968 -77.8031,-34.43986 -33.65103,-19.51983 -62.00542,-46.12867 -81.8165,-76.77976 -11.77118,-18.212 -19.56135,-34.72318 -25.78178,-54.64418 -6.41489,-20.54379 -8.95288,-35.81154 -9.52701,-57.31158 -0.30608,-11.46175 -0.14885,-17.73911 0.41327,-16.5 0.49901,1.1 2.95218,8.075 5.45147,15.5 7.78897,23.13977 14.81163,38.19159 26.45711,56.70612 26.347,41.88772 62.45376,73.73272 112.77721,99.46589 l 16.2861,8.32799 0.42704,4 c 0.56182,5.26247 0.26628,5.60999 -3.27038,3.84567 -2.55531,-1.27475 -2.9911,-2.06052 -2.9911,-5.39323 0,-3.31716 -0.44598,-4.1317 -2.97952,-5.44185 -2.03401,-1.05183 -4.2504,-1.33755 -6.9843,-0.90038 -4.70781,0.75281 -8.70818,-1.31568 -9.2134,-4.76402 -0.38204,-2.60754 -9.14695,-7.83568 -11.92048,-7.11039 -2.01205,0.52616 -7.88483,-3.21488 -7.93372,-5.05389 -0.0424,-1.59416 -4.57638,-4.80439 -7.28277,-5.15648 -5.34923,-0.6959 -10.4811,-4.46273 -12.02499,-8.82644 -0.35046,-0.99055 -2.58265,-2.66157 -4.96043,-3.71337 -2.37778,-1.05181 -4.92189,-3.03098 -5.65359,-4.39818 -0.7317,-1.36719 -4.21198,-4.6014 -7.73396,-7.18715 -3.52197,-2.58574 -6.8189,-5.47736 -7.3265,-6.42582 -0.5076,-0.94846 -2.0608,-1.72447 -3.45155,-1.72447 -3.28657,0 -5.53479,-1.9244 -5.53479,-4.73759 0,-2.82338 -3.82227,-7.79459 -5.49854,-7.15134 -1.73397,0.66538 -3.50146,-1.3203 -3.50146,-3.93371 0,-1.2938 -1.82026,-3.8505 -4.5,-6.3206 -2.475,-2.28137 -4.51829,-4.47618 -4.54064,-4.87736 -0.0224,-0.40117 -1.37235,-2.2874 -3,-4.19163 -1.62765,-1.90422 -2.95936,-4.02606 -2.95936,-4.7152 0,-2.37661 -6.15437,-8.40835 -7.98611,-7.82698 -2.65789,0.84358 -4.29568,-1.72796 -2.58795,-4.06342 2.02574,-2.77036 0.3986,-4.96322 -5.06389,-6.82447 -5.18841,-1.76787 -6.82531,-1.14964 -8.48012,3.20286 -0.61937,1.62904 -1.41959,2.1971 -2.50717,1.77975 -1.1511,-0.44171 -1.43142,-0.18034 -1.00325,0.93543 0.3268,0.85164 1.33323,4.11924 2.23651,7.26134 0.90328,3.14211 2.29382,6.99154 3.09009,8.5543 1.33441,2.61892 1.54817,2.70407 2.73022,1.08752 3.39009,-4.63622 7.06412,2.64431 4.10618,8.13688 -1.71511,3.18476 -1.70152,3.36476 0.55753,7.38419 l 2.31549,4.11985 1.32817,-2.53491 c 0.73927,-1.41094 2.20504,-2.53491 3.30578,-2.53491 1.73452,0 1.91917,0.52243 1.50216,4.25 -0.2615,2.3375 -0.7317,5.375 -1.04489,6.75 -0.6622,2.90728 3.45852,10.60009 4.28527,8 0.9953,-3.13017 3.39539,-4.97435 5.20994,-4.00323 2.00179,1.07132 1.64772,5.2258 -0.6047,7.09514 -2.1875,1.81546 -1.64074,4.6016 1.59789,8.14231 2.93178,3.20526 2.99881,3.22408 3.61663,1.01578 0.34621,-1.2375 1.04112,-2.25 1.54424,-2.25 1.668,0 2.13695,3.09901 0.83661,5.52871 -1.44431,2.69873 -0.54529,4.20349 8.54123,14.2961 3.668,4.07414 5.28218,5.19715 6.87245,4.78128 3.36924,-0.88107 9.60169,1.42466 9.60169,3.5522 0,1.37968 -0.75261,1.84171 -3,1.84171 -3.99589,0 -3.78579,1.05736 1.08439,5.45728 3.67068,3.31623 4.47338,3.62428 7.92459,3.0412 3.31295,-0.55972 4.00524,-0.34042 5.04222,1.5972 1.01568,1.89781 0.91111,2.4626 -0.67459,3.64325 -1.79494,1.33645 -1.74604,1.50539 1.12339,3.88182 4.41068,3.65287 8.58778,5.66619 11.99041,5.77925 2.4716,0.0821 2.96908,0.4905 2.78299,2.2845 -0.25655,2.47314 4.46523,6.64992 11.61225,10.27195 3.54305,1.79558 4.54878,1.96525 5.23469,0.88308 0.66647,-1.05149 0.85233,-0.98875 0.86435,0.29178 0.0187,1.99698 4.72096,5.67622 11.90282,9.31334 4.32326,2.18943 5.56363,2.46438 6.27909,1.39188 0.68749,-1.03058 1.52314,-0.60211 3.65047,1.87173 1.51739,1.76454 5.39298,4.41418 8.61244,5.8881 l 5.85355,2.67984 1.81948,-2.3881 c 1.72476,-2.26378 1.96466,-2.30827 4.60847,-0.85468 1.6292,0.89575 2.9328,2.55914 3.13481,4 0.48455,3.45614 1.8257,4.78788 6.11624,6.07336 3.33471,0.9991 4.14703,0.84944 7.7563,-1.42899 2.35435,-1.48623 4.29945,-3.61262 4.67562,-5.11138 0.78811,-3.1401 1.90737,-3.2327 4.56706,-0.37785 2.59302,2.78328 2.60931,5.49564 0.0379,6.31178 -2.21616,0.70338 -4.39821,4.04461 -3.54402,5.42672 0.30108,0.48715 2.67624,1.61109 5.27813,2.49765 4.60111,1.56775 4.77476,1.55353 6.33831,-0.51932 1.60474,-2.12745 1.6172,-2.12282 7.01812,2.60685 8.1385,7.12703 8.69474,7.76218 4.80813,5.49027 z"
         id="path49" />
      <path
         style="fill:#fa440f;fill-opacity:1"
         d="m 263.88227,417.52911 c 1.69067,-1.56548 -1.31509,-4.99496 -4.37782,-4.99496 -1.63065,0 -2.96482,0.15785 -2.96482,0.35078 0,0.19292 0.49915,1.78265 1.10923,3.53272 0.91048,2.6118 1.49282,3.06635 3.25,2.53682 1.17742,-0.35481 2.51996,-0.99622 2.98341,-1.42536 z"
         id="path48" />
      <path
         style="fill:#fa440f;fill-opacity:1"
         d="m 274.77,432.08699 c 1.47755,-2.64025 -0.82369,-4.35812 -6.84608,-5.11056 -3.01166,-0.37629 -5.70653,-0.45337 -5.9886,-0.1713 -0.28207,0.28207 0.12712,2.04453 0.90932,3.91658 1.35695,3.24764 1.64174,3.395 6.20995,3.21329 3.27247,-0.13017 5.08138,-0.71506 5.71541,-1.84801 z"
         id="path47" />
      <path
         style="fill:#fa440f;fill-opacity:1"
         d="m 292.98578,473.44702 c -0.36954,-0.59793 -0.27983,-1.47919 0.19934,-1.95836 1.18268,-1.18268 3.78562,0.53891 2.92361,1.93369 -0.87355,1.41342 -2.25789,1.42436 -3.12295,0.0247 z"
         id="path46" />
      <path
         style="fill:#fa440f;fill-opacity:1"
         d="m 304.47475,488.11232 c 0.64901,-0.782 3.06661,-1.73964 5.37245,-2.12807 2.43378,-0.40999 5.11624,-1.70123 6.39468,-3.07817 2.28445,-2.46046 6.68043,-3.17979 7.8516,-1.2848 0.48382,0.78285 0.97617,0.78285 1.75902,0 0.78284,-0.78284 0.75125,-1.42301 -0.11287,-2.28713 -0.66,-0.66 -1.21414,-2.5725 -1.23142,-4.25 -0.0205,-1.98792 -0.8149,-3.61821 -2.28135,-4.68176 -7.08544,-5.1387 -10.23625,-6.86824 -12.51233,-6.86824 -2.93091,0 -7.1749,-3.56046 -7.1749,-6.01933 0,-2.19439 -2.25945,-4.01948 -9.24315,-7.46626 -4.36369,-2.15369 -6.01934,-3.59832 -6.89305,-6.01452 -0.94876,-2.62376 -2.04319,-3.45441 -6.25685,-4.74885 l -5.10695,-1.56885 -2.70936,3.1589 c -1.49015,1.7374 -2.72765,3.42986 -2.75,3.76103 -0.0224,0.33116 0.98779,2.1282 2.24475,3.99341 2.01027,2.98303 2.73259,3.35277 6,3.07127 3.15755,-0.27204 3.71461,-0.0193 3.71461,1.68515 0,1.10286 -0.73468,2.73988 -1.63263,3.63782 -2.24676,2.24677 -1.3243,3.96761 9.16055,17.0889 13.33642,16.68992 13.24403,16.60597 15.4072,13.9995 z"
         id="path45" />
      <path
         style="fill:#fa440f;fill-opacity:1"
         d="m 556.39791,595.98719 c 3.25005,-4.13177 3.61439,-7.95218 1.14017,-11.95555 -1.29495,-2.09526 -2.95708,-3.49749 -4.14575,-3.49749 -4.92435,0 -8.89036,-3.98811 -8.63002,-8.67812 0.20497,-3.69253 -2.34369,-6.34113 -8.98611,-9.33847 -2.5098,-1.13254 -4.64066,-2.91605 -5.18056,-4.33609 -1.37473,-3.61582 -6.19801,-6.5409 -12.20063,-7.39909 -4.79066,-0.68491 -5.38736,-1.04034 -5.65866,-3.3707 -0.36262,-3.11481 -3.66325,-4.87753 -9.13299,-4.87753 -2.35359,0 -4.7568,-0.76197 -6.20295,-1.96673 -1.29843,-1.0817 -1.91078,-1.99932 -1.36078,-2.03914 1.18096,-0.0855 -4.79765,-2.83358 -8.76929,-4.0308 -1.68563,-0.50812 -2.543,-0.46862 -2.19099,0.10094 1.60872,2.60297 -8.62674,-0.42517 -12.52527,-3.70556 -3.67627,-3.09338 -11.34581,-5.56463 -14.67592,-4.72883 -1.54419,0.38757 -3.06776,0.0202 -4.21257,-1.01589 -0.98639,-0.89267 -4.1296,-2.31681 -6.98491,-3.16474 -4.6806,-1.38999 -5.34361,-1.38955 -6.73768,0.005 -0.85043,0.85043 -2.13283,1.54623 -2.8498,1.54623 -0.71696,0 -2.64597,0.26848 -4.28667,0.59662 -2.32449,0.4649 -3.13444,0.18892 -3.66858,-1.25 -1.73501,-4.674 -3.36201,-6.49378 -6.70085,-7.49478 -2.63983,-0.79143 -4.17641,-0.77292 -5.75,0.0692 -1.51222,0.80931 -2.71965,0.84306 -4.08173,0.1141 -1.06384,-0.56935 -3.08884,-1.03518 -4.5,-1.03518 -2.57988,0 -3.67661,-2.46304 -1.43016,-3.21186 0.62457,-0.20819 -0.83793,-0.98185 -3.25,-1.71925 -2.41207,-0.7374 -8.0182,-2.62956 -12.45807,-4.20481 -4.43987,-1.57568 -9.46784,-2.86452 -11.17327,-2.86452 -1.85305,0 -4.30287,-1.01149 -6.08813,-2.51368 -3.6435,-3.0658 -9.22152,-5.48632 -12.64309,-5.48632 -1.48057,0 -3.89391,-1.29639 -5.78212,-3.10601 -4.66082,-4.46684 -14.45022,-9.15344 -19.57784,-9.37275 -3.5552,-0.15206 -4.61247,0.23502 -5.86554,2.14744 -0.84073,1.28312 -2.51796,2.89508 -3.72717,3.58213 -7.22542,4.10535 -9.64688,6.10737 -9.10257,7.52582 0.31924,0.83193 -0.15999,2.33077 -1.06495,3.33074 -2.23355,2.46805 -1.36566,4.13411 4.1195,7.90799 3.4128,2.34807 4.95439,2.90792 5.76769,2.09462 0.61049,-0.61049 2.36998,-1.10998 3.90998,-1.10998 2.85715,0 3.23944,0.76468 2.8465,5.6937 -0.12507,1.56896 1.19616,3.19944 4.63931,5.72521 5.40979,3.96842 6.88551,4.27901 9.42244,1.98313 2.03626,-1.84279 4.60669,-0.96841 2.96571,1.00884 -1.32338,1.59458 4.9729,7.88619 9.97863,9.97123 3.32743,1.38598 3.63151,1.35337 4.79798,-0.51444 2.00739,-3.21435 5.1935,-1.94781 7.87187,3.12921 2.79077,5.29008 6.26459,7.42919 10.85497,6.68427 2.62318,-0.42568 3.58042,-0.0931 4.7277,1.64255 0.9578,1.44901 4.49769,3.15933 10.59254,5.11785 7.99896,2.5704 9.56977,2.79121 12.44917,1.75 4.73258,-1.71132 9.59037,-1.51882 10.33028,0.40937 0.33788,0.88051 0.002,1.97968 -0.7475,2.44259 -2.06597,1.27684 1.31944,2.26918 21.57857,6.32516 9.89551,1.98113 21.52067,4.36669 25.8337,5.30125 6.25258,1.35483 8.46095,1.46552 10.89654,0.54619 3.17476,-1.19834 5.22356,-0.77262 4.20593,0.87394 -0.67471,1.09171 5.47872,3.90995 8.53711,3.90995 1.12513,0 2.87997,-0.52102 3.89965,-1.15782 2.3425,-1.46291 5.52663,-0.3471 4.75414,1.66599 -0.73598,1.91792 5.30029,4.60893 10.99661,4.90236 2.68413,0.13827 5.15263,1.06717 7.04522,2.65116 1.60236,1.34107 5.2462,3.52336 8.09742,4.84953 l 5.18403,2.41123 2.03916,-2.59237 c 1.90309,-2.41939 2.21995,-2.49856 4.74874,-1.18661 3.0524,1.5836 4.08099,3.55749 4.18329,8.02782 0.0553,2.41478 0.97876,3.74229 4.32029,6.21038 5.19486,3.83698 7.01801,3.96437 9.60828,0.67137 z"
         id="path44" />
      <path
         style="fill:#fa440f;fill-opacity:1"
         d="m 570.36365,612.02144 c -0.56911,-2.74301 -1.38902,-5.36648 -1.82202,-5.82993 -0.87427,-0.93575 -5.002,0.92683 -5.002,2.25709 0,0.74738 7.22712,8.89211 7.67938,8.6544 0.0987,-0.0518 -0.28625,-2.33856 -0.85536,-5.08156 z"
         id="path43" />
      <path
         style="fill:#fa440f;fill-opacity:1"
         d="m 566.36529,614.64552 c -14.10795,-16.71022 -34.47745,-29.96138 -59.82566,-38.91895 -14.06845,-4.97152 -21.88244,-6.88506 -52,-12.73406 -42.49764,-8.25328 -63.0921,-14.39155 -88.5,-26.37783 -51.08878,-24.10133 -88.56951,-63.54329 -106.98251,-112.58053 -3.62804,-9.66215 -7.827,-25.07147 -7.27945,-26.71411 0.18394,-0.55183 2.04731,1.57645 4.14081,4.7295 9.82658,14.79989 28.53064,35.81157 43.03358,48.34285 19.82415,17.12907 36.11351,27.87012 60.08757,39.62115 23.43499,11.4868 45.87258,19.24679 88,30.43457 36.90684,9.80136 56.52226,17.27151 75.32118,28.68461 23.79812,14.44818 41.62907,37.05077 49.1491,62.30163 3.49146,11.72366 2.54237,12.31606 -5.14462,3.21117 z"
         id="path42" />
      <path
         style="fill:#fa440f;fill-opacity:1"
         d="m 1006.6412,516.3951 c 5.4785,-2.35678 5.9251,-4.19413 1.1351,-4.66956 -4.0935,-0.4063 -9.23667,2.28551 -9.23667,4.83429 0,2.53957 1.90537,2.50083 8.10157,-0.16473 z"
         id="path41" />
      <path
         style="fill:#fa440f;fill-opacity:1"
         d="m 864.07385,631.58952 c -0.96526,-1.56182 0.30477,-3.05537 2.59812,-3.05537 1.37504,0 1.90805,0.55174 1.6795,1.73852 -0.38373,1.99254 -3.30435,2.89164 -4.27762,1.31685 z"
         id="path40" />
      <path
         style="fill:#fa440f;fill-opacity:1"
         d="m 577.12258,854.66836 c -0.43077,-0.697 -0.51316,-1.53733 -0.18309,-1.86741 0.89497,-0.89496 1.87077,0.4213 1.38739,1.87145 -0.33872,1.01617 -0.57427,1.01538 -1.2043,-0.004 z"
         id="path39" />
      <path
         style="fill:#fa440f;fill-opacity:1"
         d="m 581.24453,862.16258 c 0.23852,-0.23852 -0.14297,-1.35703 -0.84776,-2.48557 -0.70479,-1.12855 -1.04816,-2.28517 -0.76306,-2.57028 0.74186,-0.74185 8.28623,1.45948 9.02306,2.63279 0.38588,0.61446 6.569,-0.17077 16.5,-2.09543 29.00896,-5.62205 39.03371,-8.24783 37.98249,-9.94874 -0.2864,-0.4634 2.04902,-0.8426 5.18982,-0.84266 3.1408,-7e-5 6.96616,-0.51751 8.50079,-1.14988 2.40636,-0.99157 2.64077,-1.42906 1.70376,-3.17988 -0.59757,-1.11656 -0.81412,-2.47081 -0.48123,-3.00945 0.96198,-1.55651 7.11296,-1.13522 8.54058,0.58496 1.34434,1.61982 3.76226,1.42826 9.22218,-0.73062 2.1157,-0.83656 2.62892,-1.55937 2.15882,-3.04051 -0.56858,-1.79144 -0.26208,-1.88987 3.92821,-1.2615 4.14145,0.62105 5.76958,0.12811 18.34117,-5.55303 15.70832,-7.09864 24.99197,-11.97981 35.67488,-18.75717 14.15117,-8.97767 21.31251,-14.06527 23.77129,-16.88774 1.35772,-1.55854 3.56693,-3.46942 4.90934,-4.24639 9.46127,-5.47602 50.94076,-48.30816 50.94076,-52.60194 0,-0.62522 1.16776,-2.2277 2.59501,-3.56108 2.95998,-2.76527 5.91418,-7.92431 4.53766,-7.92431 -1.97431,0 -1.98866,-3.14401 -0.0233,-5.10934 1.42337,-1.42337 2.79859,-1.8796 4.43084,-1.46993 1.9922,0.50001 2.76209,-0.0804 4.8637,-3.6665 2.1545,-3.67638 2.36981,-4.80855 1.57034,-8.25739 -1.34394,-5.79759 -1.33756,-5.80891 2.95036,-5.23378 4.52501,0.60693 6.42409,-0.92329 10.00965,-8.0655 1.96871,-3.92156 2.03159,-4.55971 0.71025,-7.2084 -1.23569,-2.477 -1.24456,-3.07618 -0.0601,-4.05922 0.76428,-0.6343 2.46896,-0.88237 3.78817,-0.55127 2.75537,0.69155 3.36647,0.0977 8.25767,-8.02496 3.03504,-5.0402 3.36033,-6.23362 2.77075,-10.16527 l -0.66801,-4.45463 3.1835,0.46724 c 2.61262,0.38345 3.5332,-0.0239 5.1335,-2.27127 1.0725,-1.50619 1.95,-3.03798 1.95,-3.40398 0,-0.366 1.35,-2.62761 3,-5.0258 3.25631,-4.73288 3.63743,-6.46257 1.82363,-8.27637 -1.59001,-1.59001 1.6091,-5.18474 4.04681,-4.54726 2.70141,0.70643 13.23928,-15.87779 12.48509,-19.6487 -0.47879,-2.39399 -0.14343,-2.90596 2.50929,-3.8307 1.74362,-0.60783 4.26172,-2.83944 5.84856,-5.18314 1.53264,-2.26366 4.92457,-6.68031 7.53762,-9.81479 2.61305,-3.13447 5.57846,-7.35492 6.58978,-9.37878 1.01133,-2.02386 3.23744,-4.85664 4.94691,-6.29507 1.70947,-1.43842 4.77634,-4.88787 6.81525,-7.66542 2.9018,-3.95305 3.41194,-5.23254 2.3483,-5.8899 -1.13491,-0.70142 -1.14004,-1.24857 -0.0311,-3.3206 1.32403,-2.47396 3.71732,-3.60974 7.66089,-3.63562 1.26376,-0.008 4.90656,-2.92766 9.27596,-7.43384 3.95722,-4.0811 9.09577,-8.5356 11.419,-9.89888 2.32322,-1.36328 7.91725,-5.22419 12.43117,-8.57981 4.51392,-3.35562 8.58832,-6.10112 9.05422,-6.10112 0.4659,0 2.94172,-1.32838 5.50183,-2.95195 6.36834,-4.03868 8.40804,-11.06546 3.65036,-12.57549 -1.04594,-0.33197 -2.58952,-1.2914 -3.43019,-2.13207 -2.34863,-2.34863 -8.72182,-0.56637 -9.48145,2.65148 -0.3452,1.46228 -1.55901,2.70945 -3.03837,3.12188 -4.02415,1.12187 -9.85491,0.97093 -11.90301,-0.30812 -1.49929,-0.93633 -2.52231,-0.90801 -4.73643,0.13111 -1.61458,0.75774 -2.28874,1.51906 -1.57409,1.7776 0.6875,0.24873 1.25,0.86473 1.25,1.36889 0,1.3838 -2.77231,1.09951 -3.25051,-0.33333 -0.31261,-0.93666 -1.14819,-0.9948 -3.33334,-0.23195 -2.29046,0.79962 -2.98333,1.71082 -3.22927,4.24679 -0.36667,3.78095 -3.12802,4.96844 -7.59987,3.26824 -2.40891,-0.91586 -3.49336,-0.69196 -7.21652,1.48995 -2.79597,1.63855 -4.89856,3.80507 -5.81014,5.98679 -0.98941,2.36798 -2.29418,3.62493 -4.24445,4.0889 -1.54875,0.36844 -3.54177,1.29843 -4.42894,2.06663 -0.88717,0.7682 -2.65507,1.59741 -3.92865,1.84268 -3.08389,0.5939 -8.77154,6.17831 -10.5231,10.33209 -0.77466,1.83707 -2.30328,3.57412 -3.39693,3.86012 -1.11076,0.29047 -2.53642,2.03535 -3.22988,3.95307 -0.97077,2.68462 -1.72559,3.36963 -3.46228,3.14205 -1.66248,-0.21786 -3.60731,1.30994 -7.73518,6.07654 -4.82007,5.56589 -5.33156,6.55034 -4.06263,7.81926 0.79843,0.79844 1.45169,1.76832 1.45169,2.1553 0,0.38698 -3.35771,4.03889 -7.46157,8.11537 -6.48626,6.44296 -9.28962,10.88869 -8.31298,13.18318 0.4259,1.00059 -3.38255,4.85499 -4.7971,4.85499 -0.69393,0 -1.43824,-0.52967 -1.65403,-1.17705 -0.2158,-0.64738 -1.45058,0.5352 -2.74398,2.62795 -1.91249,3.09449 -2.13489,4.15204 -1.19098,5.66348 1.99689,3.19753 1.4267,9.28865 -1.08936,11.63718 -2.24557,2.09605 -7.17205,3.87867 -9.45678,3.42189 -1.59771,-0.31943 -4.62447,5.5038 -3.28955,6.32882 0.54798,0.33867 0.99633,2.82765 0.99633,5.53107 0,4.45331 -0.28282,5.06155 -3.00903,6.47133 -2.18634,1.1306 -3.52543,1.27966 -4.89778,0.5452 -3.16766,-1.69527 -4.66785,2.16983 -4.59694,11.84354 l 0.0615,8.39341 -3.44829,1.44079 c -1.89655,0.79243 -4.52417,1.23511 -5.83915,0.98374 -3.33168,-0.63689 -6.00978,3.37037 -4.48661,6.71335 1.51807,3.33182 -1.06789,6.97178 -4.36509,6.14424 -1.89369,-0.47529 -2.6557,-0.0112 -3.88497,2.36593 -0.84107,1.62646 -1.41773,3.99398 -1.28145,5.26116 0.18076,1.68086 -0.26496,2.30533 -1.64807,2.309 -1.04271,0.003 -2.81119,1.23105 -3.92995,2.72951 -1.79569,2.40514 -1.87661,3.01875 -0.69038,5.23525 1.16468,2.17622 1.11882,2.7593 -0.34416,4.37588 -0.92834,1.0258 -1.43617,2.52107 -1.12851,3.32281 0.79468,2.07091 -2.44214,4.64066 -7.05164,5.59838 -3.10049,0.64418 -4.73314,1.86774 -7.66065,5.74113 -2.65487,3.51267 -3.37364,5.14284 -2.50964,5.69193 0.71768,0.45609 0.77713,0.77569 0.14598,0.78477 -0.58563,0.008 -1.79088,1.53794 -2.67832,3.39894 -0.88745,1.86099 -3.43619,4.67349 -5.66386,6.25 -2.22768,1.5765 -4.05994,3.60139 -4.07168,4.49974 -0.0117,0.89835 -0.91908,1.86813 -2.0163,2.15506 -1.09723,0.28693 -2.29545,1.35191 -2.66273,2.36663 -1.16835,3.22795 -4.4624,7.38876 -5.39383,6.8131 -1.37016,-0.84681 -9.94847,7.52125 -9.94847,9.70465 0,2.50044 -4.35884,6.82719 -6.87782,6.82719 -1.0828,0 -3.35326,1.165 -5.04545,2.58889 -2.30885,1.94277 -3.07673,3.4255 -3.07673,5.94099 0,3.98943 -0.69716,4.52573 -6.37684,4.90543 -5.81325,0.38862 -10.80093,4.00822 -9.98775,7.24818 0.32336,1.28837 0.0326,3.01164 -0.64619,3.8295 -0.67876,0.81785 -0.86401,1.48701 -0.41166,1.48701 0.45234,0 0.30206,0.52038 -0.33397,1.15641 -0.63602,0.63602 -3.58412,1.22888 -6.55132,1.31745 -5.81666,0.17364 -14.08227,3.7588 -18.74699,8.1314 -1.40509,1.31711 -3.27978,2.39474 -4.16597,2.39474 -0.88619,0 -3.03688,1.8 -4.77931,4 -2.91547,3.68108 -3.55464,4 -8.01664,4 -3.87848,0 -4.96876,0.37864 -5.44923,1.89245 -0.705,2.22128 -5.22463,4.32089 -8.63794,4.01279 -4.56819,-0.41234 -5.70566,0.10945 -6.74635,3.09476 -0.9933,2.8494 -1.3256,3 -6.61926,3 -4.2873,0 -6.45493,0.58333 -9.39321,2.52779 -2.95251,1.95388 -5.1613,2.54389 -9.72856,2.59868 -7.49446,0.0899 -12.06571,1.45353 -12.6743,3.78078 -0.59483,2.27462 -6.1996,3.44547 -12.1918,2.54688 -2.39951,-0.35982 -5.14652,-0.2156 -6.10447,0.32049 -1.58896,0.88923 -1.51553,1.17141 0.83715,3.21703 5.75162,5.00097 5.6871,12.00835 -0.11057,12.00835 -3.33426,0 -5.16482,-1.63114 -5.16482,-4.60217 0,-1.57623 -0.90532,-2.51778 -3.18507,-3.3125 -1.75178,-0.61068 -3.95661,-1.80856 -4.89962,-2.66197 -1.219,-1.10318 -2.72268,-1.36252 -5.20257,-0.89729 -3.15133,0.59119 -3.47473,0.95935 -3.35038,3.81414 0.12926,2.96732 -0.0643,3.15037 -3.17822,3.00518 -1.82372,-0.085 -4.10915,-0.87254 -5.07874,-1.75 -1.77793,-1.60901 -6.6017,-2.10964 -9.52361,-0.9884 -2.00086,0.7678 -2.04628,3.76263 -0.0818,5.39301 0.825,0.68469 1.5,2.0617 1.5,3.06002 0,1.18849 1.98506,2.87087 5.75,4.87322 4.78732,2.5461 6.56796,2.9803 10.63561,2.59348 2.68709,-0.25554 5.08077,-0.65977 5.31929,-0.89829 z"
         id="path38" />
      <path
         style="fill:#fa440f;fill-opacity:1"
         d="m 347.90046,977.55651 c 1.97646,-2.1877 3.35416,-4.60152 3.06155,-5.36404 -0.35082,-0.91421 0.42326,-1.58657 2.27281,-1.97414 1.5527,-0.32537 6.91385,-4.2922 12.00933,-8.88597 5.06249,-4.56401 11.51763,-10.09821 14.34475,-12.29821 2.82712,-2.2 7.91008,-6.14736 11.29547,-8.77192 13.23089,-10.25737 40.02299,-27.20899 56.46839,-35.72808 6.7262,-3.48433 8.76199,-5.03066 9.01967,-6.85113 0.30358,-2.14468 0.69872,-2.3031 4.5,-1.80423 3.36367,0.44144 5.42054,-0.0693 10.6672,-2.64888 5.88726,-2.8945 6.46969,-3.455 6.17843,-5.94576 -0.27901,-2.38613 0.0274,-2.75 2.31575,-2.75 1.45051,0 3.53116,0.47838 4.62366,1.06306 1.47677,0.79035 3.21853,0.6538 6.78942,-0.53226 4.2596,-1.41481 4.75008,-1.87247 4.33481,-4.04481 -0.65141,-3.40765 3.90654,-5.27386 7.35773,-3.01256 2.95525,1.93636 5.36241,1.92562 10.28975,-0.0459 2.63309,-1.05356 4.13108,-2.37358 4.53929,-4 0.67502,-2.68954 4.57116,-3.48009 4.57116,-0.92753 0,1.6164 1.17987,1.82626 4.80656,0.85492 1.65103,-0.44219 2.11048,-1.07777 1.61665,-2.23634 -0.97455,-2.28639 -0.55538,-7.39493 0.70583,-8.60227 0.72903,-0.69788 1.53999,-0.31134 2.58829,1.23369 1.18173,1.7417 2.488,2.25 5.7822,2.25 2.56279,0 4.75077,0.59667 5.50047,1.5 1.58876,1.91434 4.31488,1.90565 8.04966,-0.0257 3.55952,-1.8407 3.61061,-2.80096 0.42425,-7.97432 -1.35501,-2.2 -2.46597,-5.51258 -2.46879,-7.36129 -0.005,-3.33395 -0.0352,-3.35565 -3.7055,-2.6671 -2.03521,0.38181 -4.17271,1.30499 -4.75,2.05152 -0.79363,1.02629 -10.78139,5.4733 -12.29962,5.47637 -0.1375,2.7e-4 -0.25,-0.73375 -0.25,-1.63117 0,-2.75067 -7.81165,-1.13738 -10.43735,2.15556 -1.59701,2.00284 -3.31404,2.80648 -6.84709,3.2047 -3.29131,0.37098 -4.71556,0.16985 -4.71556,-0.66593 0,-1.21856 -0.76282,-1.11385 -8.25,1.13241 -2.96278,0.88887 -3.75,1.62285 -3.75,3.49637 0,3.0937 -1.64144,3.62149 -7.3112,2.35087 -3.72613,-0.83504 -5.43178,-0.72883 -8.59017,0.5349 -3.78795,1.51564 -3.90066,1.69225 -2.90414,4.55086 0.57021,1.63571 0.76363,3.24715 0.42981,3.58097 -0.33382,0.33382 -0.10575,1.21085 0.50682,1.94895 0.82758,0.99717 0.77199,1.75383 -0.21633,2.94468 -1.21183,1.46016 -1.46724,1.43569 -2.87244,-0.27523 -0.84829,-1.03285 -3.83224,-2.82394 -6.63099,-3.9802 -4.50054,-1.85932 -5.45367,-1.94881 -8.24701,-0.7743 -2.63848,1.1094 -3.1071,1.79625 -2.84693,4.17275 0.17129,1.56462 0.665,3.41685 1.09714,4.11607 1.18741,1.92126 -0.14054,2.60929 -2.66607,1.38132 -1.23667,-0.60129 -4.60883,-1.36719 -7.4937,-1.70198 -5.23515,-0.60755 -5.25508,-0.5991 -10.3893,4.40192 -5.41501,5.27452 -8.66711,6.99599 -9.78854,5.18148 -0.94373,-1.52698 -5.99201,1.36684 -11.55821,6.6255 -2.75541,2.60317 -5.44146,4.25 -6.93192,4.25 -2.1129,0 -8.49996,4.2068 -9.40073,6.19173 -0.17265,0.38046 -2.24832,1.62817 -4.6126,2.77269 -2.36427,1.14453 -6.13568,4.25953 -8.3809,6.92223 -2.4566,2.91339 -5.19931,5.07193 -6.88741,5.42048 -3.18367,0.65736 -9.70987,6.22905 -8.87618,7.57799 0.62753,1.01536 -1.95818,3.4285 -3.99381,3.72727 -3.86254,0.56692 -11.43519,8.19737 -11.43519,11.52249 0,1.64811 -1.03248,2.30289 -3.16986,2.01027 -0.36843,-0.0504 -2.03405,1.46201 -3.70138,3.361 -2.86319,3.261 -2.95127,3.60654 -1.5863,6.22329 0.79487,1.52382 1.44799,3.33308 1.45138,4.02058 0.007,1.49973 -5.15898,1.68486 -6.60708,0.23676 -0.68433,-0.68433 -1.77627,-0.20105 -3.36377,1.48877 -2.21189,2.35444 -2.27175,2.74068 -1.01502,6.54861 1.24441,3.77062 5.3108,8.97586 7.01203,8.97586 0.411,0 2.36438,-1.78994 4.34083,-3.97764 z"
         id="path37" />
      <path
         style="fill:#fa440f;fill-opacity:1"
         d="m 337.09893,988.87566 c 2.37019,-2.55748 2.39728,-2.73796 0.71291,-4.75 -0.96299,-1.15033 -1.82696,-2.23778 -1.91992,-2.41655 -0.093,-0.17876 -0.77276,-0.42541 -1.51066,-0.54809 -0.7379,-0.12268 -2.41136,-0.81037 -3.7188,-1.52821 -1.91123,-1.04933 -2.53047,-1.05711 -3.15925,-0.0397 -0.44614,0.72187 -0.17675,1.87076 0.62717,2.67468 0.77509,0.77508 1.40925,2.17698 1.40925,3.11531 0,2.06444 2.72691,6.15108 4.10445,6.15108 0.54508,0 2.09976,-1.19632 3.45485,-2.65849 z"
         id="path36" />
      <path
         style="fill:#fa440f;fill-opacity:1"
         d="m 311.20302,1018.7842 c 2.92746,-3.9701 8.66688,-10.7666 13.30046,-15.75 5.90625,-6.35227 5.81573,-8.31461 -0.46385,-10.05639 -4.84543,-1.34399 -5,-1.20314 -5,4.55634 v 5.50005 l -3.47362,0.5 c -4.43863,0.6389 -6.80065,4.4869 -4.38956,7.1511 0.9298,1.0275 1.2877,2.5113 0.90019,3.7322 -0.52622,1.658 -1.07099,1.8641 -2.99418,1.1329 -2.04315,-0.7768 -2.51528,-0.497 -3.60645,2.1373 -1.04119,2.5137 -1.01489,3.1835 0.15404,3.9235 2.19555,1.3899 2.62362,1.1727 5.57297,-2.827 z"
         id="path35" />
      <path
         style="fill:#fa440f;fill-opacity:1"
         d="m 302.90363,1030.7304 c 3.1203,-4.5026 3.22992,-5.1962 0.82121,-5.1962 -1.09278,0 -2.48524,1.4059 -3.5,3.5339 -3.12787,6.5592 -1.44043,7.6064 2.67879,1.6623 z"
         id="path34" />
      <path
         style="fill:#fa440f;fill-opacity:1"
         d="m 295.55049,1038.1631 c 16.0129,-45.36795 44.175,-84.34007 83.98914,-116.22835 38.58961,-30.90753 86.48042,-54.1659 137.5,-66.77746 38.94876,-9.62776 51.49639,-12.39881 59.55005,-13.15117 7.2836,-0.68042 40.3108,-8.94172 55.94995,-13.99511 61.23772,-19.78739 106.71259,-52.30382 147.53111,-105.4909 16.3595,-21.31665 30.90675,-43.46419 64.68889,-98.48596 20.17351,-32.85707 35.12895,-52.97072 51.71954,-69.55785 27.31847,-27.3128 53.82221,-40.66257 90.27359,-45.47026 12.07765,-1.59296 46.81464,-2.05067 45.23684,-0.59607 -0.5225,0.4817 -4.775,2.12281 -9.45,3.64691 -44.65822,14.55903 -77.65865,39.57029 -110.14181,83.47727 -16.15934,21.84232 -18.58416,25.48045 -41.3232,62 -34.2264,54.9686 -50.3391,77.82449 -71.58151,101.53849 -24.83508,27.72469 -54.28214,50.17915 -86.45345,65.92393 -35.77319,17.50756 -66.81472,26.6916 -128.5,38.0184 -10.725,1.96936 -20.85,4.03321 -22.5,4.58635 -3.49967,1.17322 -27.8995,6.78856 -34.56812,7.95546 -11.84478,2.07264 -40.23153,11.98143 -59.75149,20.85709 -65.07243,29.58821 -121.42689,76.36509 -165.04828,136.99793 -4.47266,6.217 -8.13211,11.7128 -8.13211,12.213 0,0.5002 -0.43734,0.9094 -0.97188,0.9094 -0.53453,0 0.3577,-3.767 1.98274,-8.3711 z"
         id="path7" />
      <path
         style="opacity:1;fill:#0047ab;fill-opacity:1"
         d="m 277.79753,253.75872 c -1.01238,-1.01238 -0.57995,-8.22457 0.49313,-8.22457 0.8508,0 3.94897,5.76743 3.94897,7.35125 0,0.70692 -3.85132,1.4641 -4.4421,0.87332 z"
         id="path24" />
      <path
         style="opacity:1;fill:#0047ab;fill-opacity:1"
         d="m 279.24257,269.43914 c 0.003,-3.24909 0.17451,-3.40959 3.75,-3.50541 3.61511,-0.0969 5.19956,0.8758 5.23175,3.21175 0.009,0.65213 -1.03216,0.91109 -2.51973,0.62672 -1.58682,-0.30334 -3.27003,0.18055 -4.5,1.29366 -1.91675,1.73464 -1.96489,1.69473 -1.96202,-1.62672 z"
         id="path23" />
      <path
         style="opacity:1;fill:#004fa3;fill-opacity:1"
         d="m 283.35883,291.21905 c -1.47442,-3.70858 -1.41197,-4.73448 0.24938,-4.09696 0.79611,0.3055 1.58002,-0.28338 1.87406,-1.40781 0.41504,-1.58709 1.33983,-1.91037 5.16793,-1.80656 2.94401,0.0798 5.0119,0.67928 5.61062,1.62643 1.32605,2.09776 1.20612,3 -0.39875,3 -0.75765,0 -1.93775,0.675 -2.62244,1.5 -0.68469,0.825 -2.72729,1.5 -4.53911,1.5 -1.81182,0 -3.50308,0.5625 -3.75836,1.25 -0.25878,0.69693 -0.95933,0.004 -1.58333,-1.5651 z"
         id="path22" />
      <path
         style="opacity:1;fill:#fa3e09"
         d="m 257.64886,416.41765 c -0.61008,-1.75007 -1.10923,-3.3398 -1.10923,-3.53272 0,-0.19293 1.33417,-0.35078 2.96482,-0.35078 1.9917,0 3.33499,0.69167 4.09264,2.10736 1.22992,2.29812 0.58917,3.32232 -2.69823,4.31296 -1.75718,0.52953 -2.33952,0.075 -3.25,-2.53682 z"
         id="path21" />
      <path
         style="opacity:1;fill:#fa3e09"
         d="m 262.84464,430.72171 c -0.7822,-1.87205 -1.19139,-3.63451 -0.90932,-3.91658 0.99103,-0.99103 11.47736,0.87113 12.61332,2.23987 2.12117,2.55586 -0.26773,4.68211 -5.49405,4.89 -4.56821,0.18171 -4.853,0.0344 -6.20995,-3.21329 z"
         id="path20" />
      <path
         style="opacity:1;fill:#004fa3;fill-opacity:1"
         d="m 476.3614,470.35341 -4.37823,-4.13072 -1.63988,2.17404 c -1.60026,2.12151 -1.75422,2.13509 -6.37061,0.56213 -2.60189,-0.88656 -4.97705,-2.0105 -5.27813,-2.49765 -0.85419,-1.38211 1.32786,-4.72334 3.54402,-5.42672 2.57141,-0.81614 2.55512,-3.5285 -0.0379,-6.31178 -2.65969,-2.85485 -3.77895,-2.76225 -4.56706,0.37785 -0.37617,1.49876 -2.32127,3.62515 -4.67562,5.11138 -3.60927,2.27843 -4.42159,2.42809 -7.7563,1.42899 -4.29054,-1.28548 -5.63169,-2.61722 -6.11624,-6.07336 -0.20201,-1.44086 -1.50561,-3.10425 -3.13481,-4 -2.64381,-1.45359 -2.88371,-1.4091 -4.60847,0.85468 l -1.81948,2.3881 -5.85355,-2.67984 c -3.21946,-1.47392 -7.09505,-4.12356 -8.61244,-5.8881 -2.12733,-2.47384 -2.96298,-2.90231 -3.65047,-1.87173 -1.64853,2.47121 -18.14943,-7.24425 -18.18191,-10.70522 -0.012,-1.28053 -0.19788,-1.34327 -0.86435,-0.29178 -1.84062,2.90395 -17.24712,-7.29731 -16.84694,-11.15503 0.18609,-1.794 -0.31139,-2.20238 -2.78299,-2.2845 -3.40263,-0.11306 -7.57973,-2.12638 -11.99041,-5.77925 -2.86943,-2.37643 -2.91833,-2.54537 -1.12339,-3.88182 1.5857,-1.18065 1.69027,-1.74544 0.67459,-3.64325 -1.03698,-1.93762 -1.72927,-2.15692 -5.04222,-1.5972 -3.45121,0.58308 -4.25391,0.27503 -7.92459,-3.0412 -4.87018,-4.39992 -5.08028,-5.45728 -1.08439,-5.45728 2.24739,0 3,-0.46203 3,-1.84171 0,-2.12754 -6.23245,-4.43327 -9.60169,-3.5522 -1.59027,0.41587 -3.20445,-0.70714 -6.87245,-4.78128 -9.08652,-10.09261 -9.98554,-11.59737 -8.54123,-14.2961 1.30034,-2.4297 0.83139,-5.52871 -0.83661,-5.52871 -0.50312,0 -1.19803,1.0125 -1.54424,2.25 -0.61782,2.2083 -0.68485,2.18948 -3.61663,-1.01578 -3.23863,-3.54071 -3.78539,-6.32685 -1.59789,-8.14231 2.25242,-1.86934 2.60649,-6.02382 0.6047,-7.09514 -1.81455,-0.97112 -4.21464,0.87306 -5.20994,4.00323 -0.82675,2.60009 -4.94747,-5.09272 -4.28527,-8 0.31319,-1.375 0.78339,-4.4125 1.04489,-6.75 0.41701,-3.72757 0.23236,-4.25 -1.50216,-4.25 -1.10074,0 -2.56651,1.12397 -3.30578,2.53491 l -1.32817,2.53491 -2.31549,-4.11985 c -2.25905,-4.01943 -2.27264,-4.19943 -0.55753,-7.38419 2.95794,-5.49257 -0.71609,-12.7731 -4.10618,-8.13688 -1.18205,1.61655 -1.39581,1.5314 -2.73022,-1.08752 -0.79627,-1.56276 -2.18681,-5.41219 -3.09009,-8.5543 -0.90328,-3.1421 -1.90971,-6.4097 -2.23651,-7.26134 -0.42817,-1.11577 -0.14785,-1.37714 1.00325,-0.93543 1.08758,0.41735 1.8878,-0.15071 2.50717,-1.77975 1.65481,-4.3525 3.29171,-4.97073 8.48012,-3.20286 5.46249,1.86125 7.08963,4.05411 5.06389,6.82447 -1.70773,2.33546 -0.0699,4.907 2.58795,4.06342 1.83174,-0.58137 7.98611,5.45037 7.98611,7.82698 0,0.68914 1.33171,2.81098 2.95936,4.7152 1.62765,1.90423 2.97765,3.79046 3,4.19163 0.0224,0.40118 2.06564,2.59599 4.54064,4.87736 2.67974,2.4701 4.5,5.0268 4.5,6.3206 0,2.61341 1.76749,4.59909 3.50146,3.93371 1.67627,-0.64325 5.49854,4.32796 5.49854,7.15134 0,2.81319 2.24822,4.73759 5.53479,4.73759 1.39075,0 2.94395,0.77601 3.45155,1.72447 0.5076,0.94846 3.80453,3.84008 7.3265,6.42582 3.52198,2.58575 7.00226,5.81996 7.73396,7.18715 0.7317,1.3672 3.27232,3.34483 5.64583,4.39475 2.46787,1.09165 4.69645,2.89555 5.20532,4.21337 1.59423,4.12856 6.56748,7.64179 11.78786,8.32723 2.70823,0.3556 7.24041,3.5662 7.28277,5.15912 0.0489,1.83901 5.92167,5.58005 7.93372,5.05389 2.77353,-0.72529 11.53844,4.50285 11.92048,7.11039 0.50522,3.44834 4.50559,5.51683 9.2134,4.76402 2.7339,-0.43717 4.95029,-0.15145 6.9843,0.90038 2.53354,1.31015 2.97952,2.12469 2.97952,5.44185 0,3.31758 0.43974,4.12045 2.93994,5.36771 3.63836,1.81505 4.03781,1.44279 3.39028,-3.15945 -0.46743,-3.32214 -0.23607,-3.08918 2.50162,2.51894 1.65917,3.39879 4.53885,8.57379 6.39928,11.5 4.73735,7.45119 4.94551,7.82036 4.40946,7.82036 -0.26261,0 -1.45086,-1.575 -2.64058,-3.5 -1.18972,-1.925 -2.85939,-3.5 -3.71039,-3.5 -1.28615,0 -1.43102,0.87632 -0.85846,5.19255 0.85122,6.41676 1.08997,6.80745 4.16009,6.80745 1.54498,0 2.74594,-0.73726 3.19988,-1.96439 0.61498,-1.66244 1.64757,-0.70471 6.71778,6.2308 3.2951,4.50736 9.76776,12.14133 14.38367,16.96439 8.99784,9.40164 10.316,11.27465 3.2292,4.58846 z"
         id="path19" />
      <path
         style="opacity:1;fill:#fa3e09"
         d="m 296.10873,473.42235 c 0.86201,-1.39478 -1.74093,-3.11637 -2.92361,-1.93369 -0.96192,0.96192 -0.0352,3.04549 1.35451,3.04549 0.48508,0 1.19118,-0.50031 1.5691,-1.1118 z"
         id="path18" />
      <path
         style="opacity:1;fill:#fa3e09"
         d="m 299.84136,487.28415 c -4.70812,-5.17529 -19.5803,-24.26728 -20.53386,-26.36013 -0.80239,-1.76105 -0.66849,-2.6321 0.5995,-3.9001 0.89795,-0.89794 1.63263,-2.53496 1.63263,-3.63782 0,-1.70448 -0.55706,-1.95719 -3.71461,-1.68515 -3.26741,0.2815 -3.98973,-0.0882 -6,-3.07127 -1.25696,-1.86521 -2.2671,-3.66225 -2.24475,-3.99341 0.0224,-0.33117 1.25985,-2.02363 2.75,-3.76103 l 2.70936,-3.1589 5.10695,1.56885 c 4.21366,1.29444 5.30809,2.12509 6.25685,4.74885 0.87371,2.4162 2.52936,3.86083 6.89305,6.01452 6.9837,3.44678 9.24315,5.27187 9.24315,7.46626 0,2.45887 4.24399,6.01933 7.1749,6.01933 2.27608,0 5.42689,1.72954 12.51233,6.86824 1.46645,1.06355 2.26086,2.69384 2.28135,4.68176 0.0173,1.6775 0.57142,3.59 1.23142,4.25 0.86412,0.86412 0.89571,1.50429 0.11287,2.28713 -0.78285,0.78285 -1.2752,0.78285 -1.75902,0 -1.17117,-1.89499 -5.56715,-1.17566 -7.8516,1.2848 -1.27844,1.37694 -3.9609,2.66818 -6.39468,3.07817 -2.30584,0.38843 -4.72344,1.34607 -5.37245,2.12807 -1.59274,1.91914 -2.23919,1.80359 -4.63339,-0.82817 z"
         id="path17" />
      <path
         style="opacity:1;fill:#fa3e09"
         d="m 998.53963,516.55983 c 0,-2.54878 5.14317,-5.24059 9.23667,-4.83429 4.79,0.47543 4.3434,2.31278 -1.1351,4.66956 -6.1962,2.66556 -8.10157,2.7043 -8.10157,0.16473 z"
         id="path16" />
      <path
         style="opacity:1;fill:#fa3e09"
         d="m 546.78963,595.31582 c -3.34153,-2.46809 -4.26502,-3.7956 -4.32029,-6.21038 -0.1023,-4.47033 -1.13089,-6.44422 -4.18329,-8.02782 -2.52879,-1.31195 -2.84565,-1.23278 -4.74874,1.18661 l -2.03916,2.59237 -5.18403,-2.41123 c -2.85122,-1.32617 -6.49506,-3.50846 -8.09742,-4.84953 -1.89259,-1.58399 -4.36109,-2.51289 -7.04522,-2.65116 -5.69632,-0.29343 -11.73259,-2.98444 -10.99661,-4.90236 0.77249,-2.01309 -2.41164,-3.1289 -4.75414,-1.66599 -1.01968,0.6368 -2.77452,1.15782 -3.89965,1.15782 -3.05839,0 -9.21182,-2.81824 -8.53711,-3.90995 1.01763,-1.64656 -1.03117,-2.07228 -4.20593,-0.87394 -2.43559,0.91933 -4.64396,0.80864 -10.89654,-0.54619 -4.31303,-0.93456 -15.93819,-3.32012 -25.8337,-5.30125 -20.25913,-4.05598 -23.64454,-5.04832 -21.57857,-6.32516 0.74901,-0.46291 1.08538,-1.56208 0.7475,-2.44259 -0.73991,-1.92819 -5.5977,-2.12069 -10.33028,-0.40937 -2.8794,1.04121 -4.45021,0.8204 -12.44917,-1.75 -6.09485,-1.95852 -9.63474,-3.66884 -10.59254,-5.11785 -1.14728,-1.73566 -2.10452,-2.06823 -4.7277,-1.64255 -4.59038,0.74492 -8.0642,-1.39419 -10.85497,-6.68427 -2.67837,-5.07702 -5.86448,-6.34356 -7.87187,-3.12921 -1.16647,1.86781 -1.47055,1.90042 -4.79798,0.51444 -5.00573,-2.08504 -11.30201,-8.37665 -9.97863,-9.97123 1.64098,-1.97725 -0.92945,-2.85163 -2.96571,-1.00884 -2.53693,2.29588 -4.01265,1.98529 -9.42244,-1.98313 -3.44315,-2.52577 -4.76438,-4.15625 -4.63931,-5.72521 0.39294,-4.92902 0.0106,-5.6937 -2.8465,-5.6937 -1.54,0 -3.29949,0.49949 -3.90998,1.10998 -0.8133,0.8133 -2.35489,0.25345 -5.76769,-2.09462 -5.48516,-3.77388 -6.35305,-5.43994 -4.1195,-7.90799 0.90496,-0.99997 1.38419,-2.49881 1.06495,-3.33074 -0.54431,-1.41845 1.87715,-3.42047 9.10257,-7.52582 1.20921,-0.68705 2.88644,-2.29901 3.72717,-3.58213 1.25307,-1.91242 2.31034,-2.2995 5.86554,-2.14744 5.12762,0.21931 14.91702,4.90591 19.57784,9.37275 1.88821,1.80962 4.30155,3.10601 5.78212,3.10601 3.42157,0 8.99959,2.42052 12.64309,5.48632 1.78526,1.50219 4.23508,2.51368 6.08813,2.51368 1.70543,0 6.7334,1.28884 11.17327,2.86408 4.43987,1.57525 10.046,3.46741 12.45807,4.20481 2.41207,0.7374 3.87457,1.51106 3.25,1.71925 -2.24645,0.74882 -1.14972,3.21186 1.43016,3.21186 1.41116,0 3.43616,0.46583 4.5,1.03518 1.36208,0.72896 2.56951,0.69521 4.08173,-0.1141 1.57359,-0.84216 3.11017,-0.86067 5.75,-0.0692 3.33884,1.001 4.96584,2.82078 6.70085,7.49478 0.53414,1.43892 1.34409,1.7149 3.66858,1.25 1.6407,-0.32814 3.56971,-0.59662 4.28667,-0.59662 0.71697,0 1.99937,-0.6958 2.8498,-1.54623 1.39407,-1.39407 2.05708,-1.39451 6.73768,-0.005 2.85531,0.84793 5.99852,2.27207 6.98491,3.16474 1.14481,1.03604 2.66838,1.40346 4.21257,1.01589 3.33011,-0.8358 10.99965,1.63545 14.67592,4.72883 3.89853,3.28039 14.13399,6.30853 12.52527,3.70556 -0.35201,-0.56956 0.50536,-0.60906 2.19099,-0.10094 3.97164,1.19722 9.95025,3.94528 8.76929,4.0308 -0.55,0.0398 0.0623,0.95744 1.36078,2.03914 1.44615,1.20476 3.84936,1.96673 6.20295,1.96673 5.46974,0 8.77037,1.76272 9.13299,4.87753 0.2713,2.33036 0.868,2.68579 5.65866,3.3707 6.00262,0.85819 10.8259,3.78327 12.20063,7.39909 0.5399,1.42004 2.67076,3.20355 5.18056,4.33609 6.64242,2.99734 9.19108,5.64594 8.98611,9.33847 -0.26034,4.69001 3.70567,8.67812 8.63002,8.67812 2.94247,0 6.47803,6.21769 5.65817,9.95053 -0.83946,3.82204 -4.19081,8.06046 -6.33345,8.00985 -0.92258,-0.0218 -3.58992,-1.45221 -5.92742,-3.17871 z"
         id="path15" />
      <path
         style="opacity:1;fill:#fa3e09"
         d="m 567.28963,613.24498 c -2.0625,-2.17377 -3.75,-4.33214 -3.75,-4.79638 0,-1.33026 4.12773,-3.19284 5.002,-2.25709 0.69677,0.74578 3.13247,10.6723 2.67738,10.91149 -0.0987,0.0519 -1.86688,-1.68425 -3.92938,-3.85802 z"
         id="path14" />
      <path
         style="opacity:1;fill:#fa3e09"
         d="m 868.35147,630.27267 c 0.22855,-1.18678 -0.30446,-1.73852 -1.6795,-1.73852 -2.29335,0 -3.56338,1.49355 -2.59812,3.05537 0.97327,1.57479 3.89389,0.67569 4.27762,-1.31685 z"
         id="path13" />
      <path
         style="opacity:1;fill:#fa3e09"
         d="m 578.1438,852.80498 c -1.01652,-1.01651 -1.85525,0.51389 -1.02122,1.86338 0.63003,1.01942 0.86558,1.02021 1.2043,0.004 0.2316,-0.69479 0.14921,-1.53513 -0.18308,-1.86742 z"
         id="path12" />
      <path
         style="opacity:1;fill:#fa3e09"
         d="m 565.28963,860.46739 c -3.76494,-2.00235 -5.75,-3.68473 -5.75,-4.87322 0,-0.99832 -0.675,-2.37533 -1.5,-3.06002 -1.96449,-1.63038 -1.91907,-4.62521 0.0818,-5.39301 2.92191,-1.12124 7.74568,-0.62061 9.52361,0.9884 0.96959,0.87746 3.25502,1.66496 5.07874,1.75 3.11389,0.14519 3.30748,-0.0379 3.17822,-3.00518 -0.12435,-2.85479 0.19905,-3.22295 3.35038,-3.81414 2.47989,-0.46523 3.98357,-0.20589 5.20257,0.89729 0.94301,0.85341 3.14784,2.05129 4.89962,2.66197 2.27975,0.79472 3.18507,1.73627 3.18507,3.3125 0,2.97103 1.83056,4.60217 5.16482,4.60217 5.79767,0 5.86219,-7.00738 0.11057,-12.00835 -2.35268,-2.04562 -2.42611,-2.3278 -0.83715,-3.21703 0.95795,-0.53609 3.70496,-0.68031 6.10447,-0.32049 5.9922,0.89859 11.59697,-0.27226 12.1918,-2.54688 0.60859,-2.32725 5.17984,-3.69087 12.6743,-3.78078 4.56726,-0.0548 6.77605,-0.6448 9.72856,-2.59868 2.93828,-1.94446 5.10591,-2.52779 9.39321,-2.52779 5.29366,0 5.62596,-0.1506 6.61926,-3 1.04069,-2.98531 2.17816,-3.5071 6.74635,-3.09476 3.41331,0.3081 7.93294,-1.79151 8.63794,-4.01279 0.48047,-1.51381 1.57075,-1.89245 5.44923,-1.89245 4.462,0 5.10117,-0.31892 8.01664,-4 1.74243,-2.2 3.89312,-4 4.77931,-4 0.88619,0 2.76088,-1.07763 4.16597,-2.39474 4.66472,-4.3726 12.93033,-7.95776 18.74699,-8.1314 2.9672,-0.0886 5.9153,-0.68143 6.55132,-1.31745 0.63603,-0.63603 0.78631,-1.15641 0.33397,-1.15641 -0.45235,0 -0.2671,-0.66916 0.41166,-1.48701 0.67876,-0.81786 0.96955,-2.54113 0.64619,-3.8295 -0.81318,-3.23996 4.1745,-6.85956 9.98775,-7.24818 5.67968,-0.3797 6.37684,-0.916 6.37684,-4.90543 0,-2.51549 0.76788,-3.99822 3.07673,-5.94099 1.69218,-1.42389 3.96264,-2.58889 5.04544,-2.58889 2.51898,0 6.87782,-4.32675 6.87782,-6.82719 0,-2.1834 8.57831,-10.55146 9.94849,-9.70465 0.93143,0.57566 4.22548,-3.58515 5.39383,-6.8131 0.36728,-1.01472 1.5655,-2.0797 2.66273,-2.36663 1.09722,-0.28693 2.00456,-1.25671 2.0163,-2.15506 0.0117,-0.89835 1.844,-2.92324 4.07168,-4.49974 2.22767,-1.57651 4.77641,-4.38901 5.66386,-6.25 0.88744,-1.861 2.09269,-3.39052 2.67832,-3.39894 0.63115,-0.009 0.5717,-0.32868 -0.14598,-0.78477 -0.864,-0.54909 -0.14523,-2.17926 2.50964,-5.69193 2.92751,-3.87339 4.56016,-5.09695 7.66065,-5.74113 4.6095,-0.95772 7.84632,-3.52747 7.05164,-5.59838 -0.30766,-0.80174 0.20017,-2.29701 1.12851,-3.32281 1.46298,-1.61658 1.50884,-2.19966 0.34416,-4.37588 -1.18623,-2.2165 -1.10531,-2.83011 0.69038,-5.23525 1.11876,-1.49846 2.88724,-2.72674 3.92995,-2.72951 1.38311,-0.004 1.82883,-0.62814 1.64807,-2.309 -0.13628,-1.26718 0.44038,-3.6347 1.28145,-5.26116 1.22927,-2.37715 1.99128,-2.84122 3.88497,-2.36593 3.2972,0.82754 5.88316,-2.81242 4.36509,-6.14424 -1.52317,-3.34298 1.15493,-7.35024 4.48661,-6.71335 1.31498,0.25137 3.9426,-0.19131 5.83915,-0.98374 l 3.44829,-1.44079 -0.0615,-8.39341 c -0.0709,-9.67371 1.42928,-13.53881 4.59694,-11.84354 1.37235,0.73446 2.71144,0.5854 4.89778,-0.5452 2.72621,-1.40978 3.00903,-2.01802 3.00903,-6.47133 0,-2.70342 -0.44835,-5.1924 -0.99633,-5.53107 -1.33492,-0.82502 1.69184,-6.64825 3.28955,-6.32882 2.28473,0.45678 7.21121,-1.32584 9.45678,-3.42189 2.51606,-2.34853 3.08625,-8.43965 1.08936,-11.63718 -0.94391,-1.51144 -0.72151,-2.56899 1.19098,-5.66348 1.2934,-2.09275 2.52818,-3.27533 2.74398,-2.62795 0.21579,0.64738 0.9601,1.17705 1.65403,1.17705 1.41455,0 5.223,-3.8544 4.7971,-4.85499 -0.97664,-2.29449 1.82672,-6.74022 8.31298,-13.18318 4.10386,-4.07648 7.46157,-7.72839 7.46157,-8.11537 0,-0.38698 -0.65326,-1.35686 -1.45169,-2.1553 -1.26893,-1.26892 -0.75744,-2.25337 4.06263,-7.81926 4.12787,-4.7666 6.0727,-6.2944 7.73518,-6.07654 1.73669,0.22758 2.49151,-0.45743 3.46228,-3.14205 0.69346,-1.91772 2.11912,-3.6626 3.22988,-3.95307 1.09365,-0.286 2.62227,-2.02305 3.39693,-3.86012 1.75156,-4.15378 7.43921,-9.73819 10.5231,-10.33209 1.27358,-0.24527 3.04148,-1.07448 3.92865,-1.84268 0.88717,-0.7682 2.88019,-1.69819 4.42894,-2.06663 1.95027,-0.46397 3.25504,-1.72092 4.24445,-4.0889 0.91158,-2.18172 3.01417,-4.34824 5.81014,-5.98679 3.72316,-2.18191 4.80761,-2.40581 7.21652,-1.48995 4.47185,1.7002 7.2332,0.51271 7.59987,-3.26824 0.24594,-2.53597 0.93881,-3.44717 3.22927,-4.24679 2.18515,-0.76285 3.02073,-0.70471 3.33334,0.23195 0.4782,1.43284 3.25051,1.71713 3.25051,0.33333 0,-0.50416 -0.5625,-1.12016 -1.25,-1.36889 -0.71465,-0.25854 -0.0405,-1.01986 1.57409,-1.7776 2.21412,-1.03912 3.23714,-1.06744 4.73643,-0.13111 2.0481,1.27905 7.87886,1.42999 11.90301,0.30812 1.47936,-0.41243 2.69317,-1.6596 3.03837,-3.12188 0.75963,-3.21785 7.13282,-5.00011 9.48145,-2.65148 0.84067,0.84067 2.38425,1.8001 3.43019,2.13207 4.75768,1.51003 2.71798,8.53681 -3.65036,12.57549 -2.56011,1.62357 -5.03593,2.95195 -5.50183,2.95195 -0.4659,0 -4.5403,2.7455 -9.05422,6.10112 -4.51392,3.35562 -10.10795,7.21653 -12.43117,8.57981 -2.32323,1.36328 -7.46178,5.81778 -11.419,9.89888 -4.3694,4.50618 -8.0122,7.42555 -9.27596,7.43384 -3.94357,0.0259 -6.33686,1.16166 -7.66089,3.63562 -1.10891,2.07203 -1.10378,2.61918 0.0311,3.3206 1.06364,0.65736 0.5535,1.93685 -2.3483,5.8899 -2.03891,2.77755 -5.10578,6.227 -6.81525,7.66542 -1.70947,1.43843 -3.93558,4.27121 -4.94691,6.29507 -1.01132,2.02386 -3.97673,6.24431 -6.58978,9.37878 -2.61305,3.13448 -6.00498,7.55113 -7.53762,9.81479 -1.58684,2.3437 -4.10494,4.57531 -5.84856,5.18314 -2.65272,0.92474 -2.98808,1.43671 -2.50929,3.8307 0.75419,3.77091 -9.78368,20.35513 -12.48509,19.6487 -2.43771,-0.63748 -5.63682,2.95725 -4.04681,4.54726 1.8138,1.8138 1.43268,3.54349 -1.82363,8.27637 -1.65,2.39819 -3,4.6598 -3,5.0258 0,0.366 -0.8775,1.89779 -1.95,3.40398 -1.6003,2.24742 -2.52088,2.65472 -5.1335,2.27127 l -3.1835,-0.46724 0.66801,4.45463 c 0.58958,3.93165 0.26429,5.12507 -2.77075,10.16527 -4.8912,8.12263 -5.5023,8.71651 -8.25767,8.02496 -1.31921,-0.3311 -3.02389,-0.083 -3.78817,0.55127 -1.1845,0.98304 -1.17563,1.58222 0.0601,4.05922 1.32134,2.64869 1.25846,3.28684 -0.71025,7.2084 -3.58556,7.14221 -5.48464,8.67243 -10.00965,8.0655 -4.28792,-0.57513 -4.2943,-0.56381 -2.95036,5.23378 0.79947,3.44884 0.58416,4.58101 -1.57034,8.25739 -2.10161,3.58613 -2.8715,4.16651 -4.8637,3.6665 -1.63225,-0.40967 -3.00747,0.0466 -4.43084,1.46993 -1.96533,1.96533 -1.95098,5.10934 0.0233,5.10934 1.37652,0 -1.57768,5.15904 -4.53766,7.92431 -1.42725,1.33338 -2.59501,2.93586 -2.59501,3.56108 0,4.29378 -41.47949,47.12592 -50.94076,52.60194 -1.34241,0.77697 -3.55162,2.68785 -4.90934,4.24639 -2.45878,2.82247 -9.62012,7.91007 -23.77129,16.88774 -10.68291,6.77736 -19.96656,11.65853 -35.67488,18.75717 -12.57159,5.68114 -14.19972,6.17408 -18.34117,5.55303 -4.19029,-0.62837 -4.49679,-0.52994 -3.92821,1.2615 0.4701,1.48114 -0.0431,2.20395 -2.15882,3.04051 -5.45992,2.15888 -7.87784,2.35044 -9.22218,0.73062 -1.42762,-1.72018 -7.5786,-2.14147 -8.54058,-0.58496 -0.33289,0.53864 -0.11634,1.89289 0.48123,3.00945 0.93701,1.75082 0.7026,2.18831 -1.70376,3.17988 -1.53463,0.63237 -5.35999,1.14981 -8.50079,1.14988 -3.1408,6e-5 -5.47622,0.37926 -5.18982,0.84266 1.05122,1.70091 -8.97353,4.32669 -37.98249,9.94874 -9.931,1.92466 -16.11412,2.70989 -16.5,2.09543 -0.73683,-1.17331 -8.2812,-3.37464 -9.02306,-2.63279 -0.2851,0.28511 0.0583,1.44173 0.76306,2.57028 1.64371,2.63199 1.3863,2.82679 -4.47153,3.38386 -4.06765,0.38682 -5.84829,-0.0474 -10.63561,-2.59348 z"
         id="path11" />
      <path
         style="opacity:1;fill:#fa3e09"
         d="m 340.34773,979.06952 c -1.35555,-1.35555 -3.06561,-4.2856 -3.80013,-6.51123 -1.25673,-3.80793 -1.19687,-4.19417 1.01502,-6.54861 1.5875,-1.68982 2.67944,-2.1731 3.36377,-1.48877 1.4481,1.4481 6.61447,1.26297 6.60708,-0.23676 -0.003,-0.6875 -0.65651,-2.49676 -1.45138,-4.02058 -1.36497,-2.61675 -1.27689,-2.96229 1.5863,-6.22329 1.66733,-1.89899 3.33295,-3.41144 3.70138,-3.361 2.13738,0.29262 3.16986,-0.36216 3.16986,-2.01027 0,-3.32512 7.57265,-10.95557 11.43519,-11.52247 2.03563,-0.29877 4.62134,-2.71191 3.99381,-3.72727 -0.83369,-1.34894 5.69251,-6.92063 8.87618,-7.57799 1.6881,-0.34855 4.43081,-2.50709 6.88741,-5.42048 2.24522,-2.6627 6.01663,-5.7777 8.3809,-6.92223 2.36428,-1.14452 4.43995,-2.39223 4.6126,-2.77269 0.90077,-1.98493 7.28783,-6.19173 9.40073,-6.19173 1.49046,0 4.17651,-1.64683 6.93192,-4.25 5.5662,-5.25866 10.61448,-8.15248 11.55821,-6.6255 1.12143,1.81451 4.37353,0.093 9.78854,-5.18148 5.13422,-5.00102 5.15415,-5.00947 10.3893,-4.40192 2.88487,0.33479 6.25703,1.10069 7.4937,1.70198 2.52553,1.22797 3.85348,0.53994 2.66607,-1.38132 -0.43214,-0.69922 -0.92585,-2.55145 -1.09714,-4.11607 -0.26017,-2.3765 0.20845,-3.06335 2.84693,-4.17275 2.79334,-1.17451 3.74647,-1.08502 8.24701,0.7743 2.79875,1.15626 5.7827,2.94735 6.63099,3.9802 1.4052,1.71092 1.66061,1.73539 2.87244,0.27523 0.98832,-1.19085 1.04391,-1.94751 0.21633,-2.94468 -0.61257,-0.7381 -0.84064,-1.61513 -0.50682,-1.94895 0.33382,-0.33382 0.1404,-1.94526 -0.42981,-3.58097 -0.99652,-2.85861 -0.88381,-3.03522 2.90414,-4.55086 3.15839,-1.26373 4.86404,-1.36994 8.59017,-0.5349 5.66976,1.27062 7.3112,0.74283 7.3112,-2.35087 0,-1.87352 0.78722,-2.6075 3.75,-3.49637 7.48718,-2.24626 8.25,-2.35097 8.25,-1.13241 0,0.83578 1.42425,1.03691 4.71556,0.66593 3.53305,-0.39822 5.25008,-1.20186 6.84709,-3.2047 2.6257,-3.29294 10.43735,-4.90623 10.43735,-2.15556 0,0.89742 0.1125,1.63144 0.25,1.63117 1.51823,-0.003 11.50599,-4.45008 12.29962,-5.47637 0.57729,-0.74653 2.71479,-1.66971 4.75,-2.05152 3.67028,-0.68855 3.70042,-0.66685 3.7055,2.6671 0.003,1.84871 1.11378,5.16129 2.46879,7.36129 3.18636,5.17336 3.13527,6.13362 -0.42425,7.97432 -3.73478,1.93133 -6.4609,1.94002 -8.04966,0.0257 -0.7497,-0.90333 -2.93768,-1.5 -5.50047,-1.5 -3.2942,0 -4.60047,-0.5083 -5.7822,-2.25 -1.0483,-1.54503 -1.85926,-1.93157 -2.58829,-1.23369 -1.26121,1.20734 -1.68038,6.31588 -0.70583,8.60227 0.49383,1.15857 0.0344,1.79415 -1.61665,2.23634 -3.62669,0.97132 -4.80656,0.76146 -4.80656,-0.85494 0,-2.55256 -3.89614,-1.76201 -4.57116,0.92752 -0.40821,1.62642 -1.9062,2.94644 -4.53929,4 -4.92734,1.97153 -7.3345,1.98227 -10.28975,0.0459 -3.45119,-2.2613 -8.00914,-0.39509 -7.35773,3.01256 0.41527,2.17234 -0.0752,2.63 -4.33481,4.04481 -3.57089,1.18606 -5.31265,1.32261 -6.78942,0.53226 -1.0925,-0.58467 -3.17315,-1.06305 -4.62366,-1.06305 -2.28835,0 -2.59476,0.36387 -2.31575,2.75 0.29126,2.49076 -0.29117,3.05126 -6.17843,5.94576 -5.24666,2.57956 -7.30353,3.09032 -10.6672,2.64888 -3.80128,-0.49887 -4.19642,-0.34045 -4.5,1.80423 -0.25768,1.82047 -2.29347,3.3668 -9.01967,6.85113 -16.4454,8.51909 -43.2375,25.47071 -56.46839,35.72808 -3.38539,2.62456 -8.46835,6.57192 -11.29547,8.77192 -2.82712,2.2 -9.28226,7.7342 -14.34475,12.29821 -5.09548,4.59377 -10.45663,8.5606 -12.00933,8.88597 -1.84955,0.38757 -2.62363,1.05993 -2.27281,1.97414 0.50812,1.32413 -5.84502,9.34168 -7.40238,9.34168 -0.411,0 -1.85636,-1.10908 -3.2119,-2.46463 z"
         id="path10" />
      <path
         style="opacity:1;fill:#fa3e09"
         d="m 331.09633,989.31164 c -0.85618,-1.22237 -1.5567,-2.99023 -1.5567,-3.92857 0,-0.93833 -0.63416,-2.34023 -1.40925,-3.11531 -0.80392,-0.80392 -1.07331,-1.95281 -0.62717,-2.67468 0.62878,-1.01738 1.24802,-1.0096 3.15925,0.0397 1.30744,0.71784 2.9809,1.40553 3.7188,1.52821 0.7379,0.12268 1.41769,0.36933 1.51066,0.54809 0.093,0.17877 0.95693,1.26622 1.91992,2.41655 1.68437,2.01204 1.65728,2.19252 -0.71291,4.75 -2.99947,3.23648 -3.99062,3.30847 -6.0026,0.43598 z"
         id="path9" />
      <path
         style="opacity:1;fill:#fa3e09"
         d="m 305.63005,1021.6112 c -1.16893,-0.74 -1.19523,-1.4098 -0.15404,-3.9235 1.09117,-2.6343 1.5633,-2.9141 3.60645,-2.1373 1.92319,0.7312 2.46796,0.5251 2.99418,-1.1329 0.38751,-1.2209 0.0296,-2.7047 -0.90019,-3.7322 -2.41109,-2.6642 -0.0491,-6.5122 4.38956,-7.1511 l 3.47362,-0.5 v -5.50005 c 0,-5.75948 0.15457,-5.90033 5,-4.55634 6.27958,1.74178 6.3701,3.70412 0.46385,10.05639 -4.63358,4.9834 -10.373,11.7799 -13.30046,15.75 -2.94935,3.9997 -3.37742,4.2169 -5.57297,2.827 z"
         id="path1" />
      <path
         style="opacity:1;fill:#fa3e09"
         d="m 298.53963,1033.5681 c 0,-2.5596 3.53321,-8.0339 5.18521,-8.0339 2.40871,0 2.29909,0.6936 -0.82121,5.1962 -2.54109,3.6668 -4.364,4.8522 -4.364,2.8377 z"
         id="path6" />
      <path
         style="fill:#1f9090"
         d="m 405.27451,1016.7842 c 0.0192,-0.4125 5.08169,-3.9961 11.25,-7.9635 29.49193,-18.9689 57.54257,-46.64615 81.36967,-80.28655 9.14082,-12.90549 23.82953,-36.15648 29.06032,-46 2.90463,-5.46607 6.28513,-9.53409 6.28513,-7.56339 0,0.532 -5.52512,10.54953 -12.16896,22.06339 -7.28605,12.62682 -27.61814,42.14066 -34.70469,50.37694 -2.54449,2.95732 -7.0241,8.35732 -9.95468,12 -6.90752,8.58598 -26.61935,27.65853 -36.09844,34.92772 -15.11046,11.58769 -21.6446,16.35989 -24.41616,17.83239 -4.54584,2.4152 -2.72967,2.3934 6.35925,-0.076 20.84458,-5.6637 41.11214,-17.08236 62.87402,-35.42281 25.18905,-21.22879 45.68931,-48.70788 67.82457,-90.91387 6.12775,-11.68398 7.26496,-14.54348 6.26364,-15.75 -1.02507,-1.23515 -0.79824,-1.47417 1.39901,-1.47417 1.44234,0 2.62244,0.36638 2.62244,0.81417 0,1.41102 -13.34373,27.25072 -19.46113,37.68583 -29.87457,50.96032 -65.52264,85.2171 -106.26072,102.11345 -13.56389,5.6258 -32.35675,10.0767 -32.24327,7.6366 z M 535.23963,874.71427 c 2.45349,-1.55483 8.70717,-2.60855 7.41369,-1.24917 -0.59747,0.62792 -2.84747,1.37974 -5,1.67071 -2.6907,0.36373 -3.44496,0.232 -2.41369,-0.42154 z m 12.62388,-27.97969 c -0.3537,-0.57229 4.91525,-13.114 11.70877,-27.87048 6.79353,-14.75647 15.39883,-33.80495 19.1229,-42.32995 37.94863,-86.87052 57.5724,-120.29119 88.96512,-151.51391 12.12859,-12.06291 24.153,-21.72987 35.75543,-28.74539 3.42941,-2.07363 6.70523,-3.62034 7.2796,-3.43714 1.60794,0.51289 7.14334,10.1816 10.6461,18.59561 10.71373,25.73553 6.13945,57.11372 -12.55169,86.10083 -14.59657,22.63706 -42.34983,47.16657 -69.10855,61.08106 -5.25442,2.73229 -9.96455,4.71375 -10.46695,4.40325 -0.50241,-0.31051 6.22597,-14.834 14.95194,-32.27443 18.62042,-37.21626 21.80422,-44.20988 20.12628,-44.20988 -1.50498,0 -16.6363,18.79899 -24.94935,30.99679 -10.1137,14.83992 -17.28725,27.34075 -28.12028,49.00321 -10.39629,20.78913 -31.2212,65.2354 -34.04327,72.65799 -0.48973,1.28811 -1.34043,2.34201 -1.89043,2.34201 -1.27622,0 -0.71263,-1.45813 6.99059,-18.0864 36.04568,-77.80859 49.37403,-101.63503 71.55401,-127.9136 9.33198,-11.05641 12.15392,-13.65198 13.44209,-12.36381 1.14876,1.14876 0.15243,3.8686 -6.72706,18.36381 -7.2389,15.25248 -27.424,55.3828 -28.55677,56.77417 -3.9477,4.84888 10.20043,-1.88608 24.24764,-11.54266 26.07121,-17.92231 46.57579,-39.67959 57.23484,-60.73151 14.36135,-28.36406 15.60602,-54.60677 3.79085,-79.92661 -1.55874,-3.34036 -3.92997,-7.38632 -5.2694,-8.99101 l -2.43533,-2.91761 -8.79853,5.73517 c -12.29518,8.0144 -20.72131,14.92655 -32.06001,26.29956 -30.75559,30.84864 -51.55232,66.18255 -86.99199,147.8005 -2.627,6.05 -7.40752,16.74769 -10.62339,23.77264 -3.21587,7.02496 -5.84704,12.95132 -5.84704,13.1697 0,0.21838 -2.54097,5.72069 -5.64661,12.22736 -3.10564,6.50666 -6.87057,14.69702 -8.36652,18.20078 -1.49595,3.50377 -3.0093,5.90225 -3.36299,5.32995 z M 691.94981,737.911 c -0.34273,-0.34273 3.19037,-4.75396 7.85134,-9.80273 21.5275,-23.31862 34.76863,-46.50228 39.95517,-69.95679 2.36584,-10.69878 1.64731,-29.12171 -1.52565,-39.11733 -11.51586,-36.27791 -44.53522,-65.2632 -102.00024,-89.53858 -17.10246,-7.22472 -45.21721,-16.90463 -82.9908,-28.57373 -41.22292,-12.73468 -68.17746,-21.54356 -67.62185,-22.09917 0.27257,-0.27257 10.3115,2.66808 22.30872,6.53479 11.99722,3.8667 32.83813,10.42197 46.31313,14.56726 82.84909,25.48672 118.36708,41.54225 149,67.35386 18.86437,15.89531 32.07344,35.42032 36.98238,54.66553 2.82508,11.07559 2.79996,29.21783 -0.0556,40.1517 -5.69526,21.80694 -19.46854,45.35893 -37.81627,64.66498 -4.61423,4.85523 -8.13188,9.08531 -7.817,9.40019 1.51095,1.51095 19.65163,-6.7987 29.61939,-13.56767 15.05005,-10.2203 30.51688,-28.25322 39.07608,-45.55916 8.9709,-18.13836 12.72309,-35.97338 11.67378,-55.48824 -2.99386,-55.6793 -42.83527,-100.60121 -115.16276,-129.84805 -24.09874,-9.74474 -44.37382,-16.7396 -129.05175,-44.52262 -43.3934,-14.23747 -91.44825,-32.4607 -91.44825,-34.67876 0,-0.42202 4.6125,1.266 10.25,3.75116 22.12791,9.75457 52.31976,20.44239 119.54067,42.31705 44.96051,14.63079 67.0022,22.33259 87.70933,30.64733 62.07671,24.92629 98.97232,57.80053 113.48401,101.11501 14.09128,42.05966 3.2505,86.83696 -28.79048,118.91759 -12.67175,12.68744 -25.44993,21.08808 -40.95327,26.92352 -6.74164,2.53754 -7.5668,2.70614 -8.53008,1.74286 z m -123.21018,-8.97954 c -16.41011,-14.81199 -30.35826,-19.85524 -74.39527,-26.89919 -19.23639,-3.07697 -28.92189,-5.91808 -42.60473,-12.49752 -15.60347,-7.50299 -28.24552,-17.66226 -39.67169,-31.88054 -5.44681,-6.7778 -11.82831,-17.6174 -11.82831,-20.09154 0,-1.8491 1.65951,-1.11174 11.64585,5.17455 19.29304,12.14473 35.6755,17.70124 70.28238,23.83798 34.02592,6.03372 46.8743,10.08072 60.73886,19.1316 16.86103,11.007 28.48789,27.02224 32.72557,45.07735 0.93437,3.98101 -1.00794,3.45893 -6.89266,-1.85269 z m 3.10893,-4.08856 c -2.97057,-8.41951 -9.50141,-19.06754 -16.03263,-26.13998 -5.90987,-6.3996 -20.63344,-15.7409 -30.81253,-19.54887 -11.45616,-4.28572 -17.63815,-5.79586 -39.6121,-9.67651 -36.86327,-6.51013 -56.30063,-12.88037 -73.24508,-24.00472 -4.37558,-2.87265 -8.1426,-5.03599 -8.37117,-4.80743 -0.70272,0.70273 5.41453,9.90333 12.19634,18.3438 7.27677,9.05649 22.88535,21.70235 33.26824,26.95348 16.0927,8.13886 26.65883,11.19508 52.14183,15.08189 23.46018,3.57827 31.98185,5.67658 44.66903,10.99896 8.02186,3.36525 12.78946,6.16102 18.68987,10.95996 4.35653,3.54327 8.05589,6.30738 8.2208,6.14248 0.1649,-0.16491 -0.33577,-2.10129 -1.1126,-4.30306 z M 775.84662,551.95236 c -1.34618,-3.50809 -0.35924,-6.90205 4.98232,-17.13346 20.32907,-38.93899 51.28463,-65.28257 88.73341,-75.51327 6.98838,-1.90917 10.64892,-2.231 25.17728,-2.21356 15.70728,0.0188 17.68438,0.23093 26,2.78901 11.79775,3.62926 27.26858,11.31923 35.98814,17.88836 12.01679,9.05319 23.76443,20.84548 22.26264,22.34726 -0.22619,0.22619 -8.25014,-1.56644 -17.83102,-3.98361 -22.23427,-5.60953 -36.28653,-7.59894 -53.67544,-7.59894 -23.22171,0 -40.59351,4.06889 -61.74432,14.462 -19.84454,9.75123 -38.15375,22.89627 -57.64663,41.38721 -5.30564,5.03293 -10.095,9.15079 -10.64301,9.15079 -0.54801,0 -1.26953,-0.7118 -1.60337,-1.58179 z m 10.10966,-8.16821 c 30.07217,-27.27314 53.41266,-42.25921 78.78335,-50.58389 12.92717,-4.24168 22.11354,-5.82783 37.03376,-6.39434 17.69409,-0.67183 33.94059,1.30833 56.28907,6.86063 8.97755,2.2304 16.59183,3.78627 16.92061,3.45749 2.22732,-2.22731 -22.66442,-21.49738 -36.45184,-28.21938 -28.03582,-13.66874 -53.9533,-14.51186 -83.61237,-2.72001 -22.53969,8.96133 -46.1844,28.22244 -60.58086,49.3495 -10.79348,15.83962 -19.80511,35 -16.46142,35 0.35032,0 3.98619,-3.0375 8.0797,-6.75 z"
         id="path5" />
      <path
         style="fill:#017d84"
         d="m 413.8991,1013.332 c 4.85942,-3.3918 19.06501,-13.88077 25.72319,-18.99319 9.48566,-7.28348 29.19524,-26.35883 36.08901,-34.92772 2.93058,-3.64268 7.40657,-9.04268 9.94665,-12 10.28899,-11.97911 33.38949,-46.90914 43.35461,-65.55607 2.53664,-4.74661 3.18696,-5.27969 7.78702,-6.38323 7.67001,-1.84001 16.43309,-1.56785 17.95056,0.55749 0.42668,0.59759 1.35861,0.19811 2.33285,-1 2.08527,-2.56445 -10.93735,22.66365 -16.77884,32.50487 -11.91558,20.07427 -22.14674,34.39171 -34.57185,48.37972 -23.87086,26.87346 -57.73387,49.58983 -83.55768,56.05313 -3.77575,0.945 -7.60075,1.9308 -8.5,2.1906 -1.25974,0.3639 -1.20822,0.1745 0.22448,-0.8256 z M 557.53963,871.53415 c 0,-0.55 0.45,-1 1,-1 0.55,0 1,0.45 1,1 0,0.55 -0.45,1 -1,1 -0.55,0 -1,-0.45 -1,-1 z m 6.50073,-148.53067 c -5.90041,-4.79894 -10.66801,-7.59471 -18.68987,-10.95996 -12.68718,-5.32238 -21.20885,-7.42069 -44.66903,-10.99896 -25.483,-3.88681 -36.04913,-6.94303 -52.14183,-15.08189 -10.38289,-5.25113 -25.99147,-17.89699 -33.26824,-26.95348 -6.78181,-8.44047 -12.89906,-17.64107 -12.19634,-18.3438 0.22857,-0.22856 3.99559,1.93478 8.37117,4.80743 16.94445,11.12435 36.38181,17.49459 73.24508,24.00472 31.99525,5.65043 44.28137,9.77887 58.34833,19.60648 9.73015,6.79779 13.17922,10.12739 18.76027,18.11053 5.20033,7.43855 11.58236,20.8303 10.46126,21.95141 -0.16491,0.1649 -3.86427,-2.59921 -8.2208,-6.14248 z"
         id="path4" />
      <path
         style="fill:#058c5c"
         d="m 532.53963,875.47513 c 0,-0.58246 0.45,-0.7809 1,-0.44098 0.55,0.33992 1,0.81648 1,1.05902 0,0.24254 -0.45,0.44098 -1,0.44098 -0.55,0 -1,-0.47656 -1,-1.05902 z m 22,0.27331 c 0,-0.90415 -2.66908,-1.32874 -8.82837,-1.40438 -6.00589,-0.0738 -3.98861,-1.60534 4.4361,-3.36802 3.79034,-0.79304 7.15399,-1.44189 7.47478,-1.44189 0.73737,0 0.42742,2.95508 -0.55065,5.25 -0.74851,1.75627 -2.53186,2.43548 -2.53186,0.96429 z m -6,-29.62465 c 0,-0.57317 9.21184,-20.77906 12.92727,-28.35557 1.69,-3.44626 3.07273,-6.47357 3.07273,-6.72736 0,-0.25378 2.63117,-6.20911 5.84704,-13.23407 3.21587,-7.02495 7.99639,-17.72264 10.62339,-23.77264 35.43967,-81.61795 56.2364,-116.95186 86.99199,-147.8005 11.3387,-11.37301 19.76483,-18.28516 32.06001,-26.29956 l 8.79853,-5.73517 2.43533,2.91761 c 2.90835,3.48432 7.28967,12.64867 10.25403,21.44827 2.77141,8.22679 3.74339,24.99814 2.05524,35.46291 -2.44516,15.15744 -10.07763,33.20216 -19.97142,47.21649 -13.93861,19.74375 -43.16261,44.8229 -64.94662,55.73522 -7.09373,3.55347 -9.56833,3.99816 -7.39516,1.3289 2.0352,-2.49981 30.71675,-60.55941 34.67952,-70.20122 2.12858,-5.17903 0.63297,-6.90888 -3.03444,-3.50971 -7.21684,6.68898 -20.03996,23.08181 -30.41425,38.88098 -10.09275,15.37041 -32.46979,58.62393 -44.52061,86.05578 -7.72384,17.58214 -14.50319,31.44078 -15.6887,32.07155 -1.07996,0.57461 -21.59454,4.92845 -23.22203,4.92845 -0.30352,0 -0.55185,-0.18466 -0.55185,-0.41036 z m 228,-298.14457 c 0,-3.2471 9.54761,-21.36419 17.09837,-32.44507 14.39646,-21.12706 38.04117,-40.38817 60.58086,-49.3495 29.65907,-11.79185 55.57655,-10.94873 83.61237,2.72001 13.78742,6.722 38.67916,25.99207 36.45184,28.21938 -0.32878,0.32878 -7.94306,-1.22709 -16.92061,-3.45749 -37.44406,-9.30268 -65.95841,-9.44515 -93.32283,-0.46629 -25.37069,8.32468 -48.71118,23.31075 -78.78335,50.58389 -4.09351,3.7125 -7.72938,6.75 -8.0797,6.75 -0.35032,0 -0.63695,-1.14972 -0.63695,-2.55493 z"
         id="path3" />
      <path
         style="fill:#004fa3;fill-opacity:1"
         d="m 549.05213,870.85104 c 0.72187,-0.28887 1.58438,-0.25335 1.91667,0.0789 0.33229,0.33229 -0.25834,0.56864 -1.3125,0.52522 -1.16495,-0.048 -1.4019,-0.28494 -0.60417,-0.60416 z m 9,-26 c 0.72187,-0.28887 1.58438,-0.25335 1.91667,0.0789 0.33229,0.33229 -0.25834,0.56864 -1.3125,0.52522 -1.16495,-0.048 -1.4019,-0.28494 -0.60417,-0.60416 z m 136.1875,-108.93632 c 0,-0.34068 3.7125,-4.52592 8.25,-9.30052 18.20529,-19.1566 31.99842,-42.77621 37.67677,-64.51839 2.85557,-10.93387 2.88069,-29.07611 0.0556,-40.1517 -8.24152,-32.31047 -37.54696,-61.95494 -83.48237,-84.44818 -24.61112,-12.05135 -49.6945,-21.24496 -102.5,-37.5685 -15.125,-4.67552 -36.725,-11.45417 -48,-15.06366 l -20.5,-6.56271 -8.32218,-8.13346 c -13.05797,-12.76184 -27.49782,-32.39202 -35.40669,-48.13345 -5.08382,-10.1186 -5.32911,-10.0046 8.60038,-3.99739 17.80427,7.67824 48.52778,18.83399 82.62849,30.00252 81.39154,26.65703 102.30355,33.87433 126.5,43.65858 72.86313,29.46344 112.53742,74.53934 115.1577,130.83629 2.03775,43.78131 -23.49445,87.10033 -63.29064,107.38155 -9.86472,5.02734 -17.36706,7.61883 -17.36706,5.99902 z"
         id="path2" />
    </g>
  </g>
  <metadata
     id="metadata55">
    <rdf:RDF>
      <cc:Work
         rdf:about="">
        <dc:title>ihui</dc:title>
        <dc:creator>
          <cc:Agent>
            <dc:title>ihui</dc:title>
          </cc:Agent>
        </dc:creator>
        <dc:rights>
          <cc:Agent>
            <dc:title>derechos reservados</dc:title>
          </cc:Agent>
        </dc:rights>
        <dc:subject>
          <rdf:Bag>
            <rdf:li>así se hace</rdf:li>
          </rdf:Bag>
        </dc:subject>
        <dc:description>ihui</dc:description>
        <dc:contributor>
          <cc:Agent>
            <dc:title>ihui</dc:title>
          </cc:Agent>
        </dc:contributor>
        <dc:publisher>
          <cc:Agent>
            <dc:title>ihui</dc:title>
          </cc:Agent>
        </dc:publisher>
        <dc:date>05-2026</dc:date>
        <dc:identifier>ihui</dc:identifier>
        <dc:source>ihui</dc:source>
      </cc:Work>
    </rdf:RDF>
  </metadata>
</svg>
